<?xml version="1.0" encoding="utf-8" ?>
<svg baseProfile="full" height="1500px" version="1.1" width="1500px" xmlns="http://www.w3.org/2000/svg" xmlns:ev="http://www.w3.org/2001/xml-events" xmlns:xlink="http://www.w3.org/1999/xlink"><defs /><polyline clip-path="url(#border_clip)" fill="none" points="750.5,750.5 750.5,750.5" stroke="black" stroke-linecap="round" stroke-width="1" /><polygon clip-path="url(#border_clip)" fill="#008000" fill-rule="evenodd" points="750.5,750.5 761.3372499856146,748.4741668821307 770.7108693093967,742.6702675166198 777.3548987406518,733.8721506732961 780.3720252888511,723.2680507838991 779.3547692951846,712.2901102978375 774.4405168184072,702.4209609086223 766.2929648863206,694.9934859281116 756.0124855344972,691.010807009483 744.9875144655028,691.010807009483 734.7070351136794,694.9934859281116 726.5594831815928,702.4209609086223 721.6452307048154,712.2901102978375 720.6279747111489,723.2680507838991 723.6451012593482,733.8721506732961 730.2891306906033,742.6702675166198 739.6627500143854,748.4741668821307 750.5,750.5" stroke-width="0" /><text clip-path="url(#border_clip)" fill="black" style="font-family: Arial; font-size: 33.0; font-style: normal;" text-anchor="middle" x="749.5" y="741.5">55</text><polygon clip-path="url(#border_clip)" fill="#008000" fill-rule="evenodd" points="750.5,650.5 761.3372499856146,648.4741668821307 770.7108693093967,642.6702675166198 777.3548987406518,633.8721506732961 780.3720252888511,623.2680507838991 779.3547692951846,612.2901102978375 774.4405168184072,602.4209609086223 766.2929648863206,594.9934859281116 756.0124855344972,591.010807009483 744.987514465503,591.010807009483 734.7070351136794,594.9934859281116 726.5594831815928,602.4209609086223 721.6452307048154,612.2901102978375 720.6279747111489,623.2680507838991 723.6451012593482,633.8721506732961 730.2891306906033,642.6702675166198 739.6627500143854,648.4741668821307 750.5,650.5" stroke-width="0" /><text clip-path="url(#border_clip)" fill="black" style="font-family: Arial; font-size: 33.0; font-style: normal;" text-anchor="middle" x="749.5" y="641.5">55</text><polygon clip-path="url(#border_clip)" fill="#008000" fill-rule="evenodd" points="750.5,550.5 761.3372499856146,548.4741668821307 770.7108693093967,542.6702675166198 777.3548987406518,533.8721506732961 780.3720252888511,523.2680507838991 779.3547692951846,512.2901102978376 774.4405168184072,502.4209609086223 766.2929648863208,494.99348592811157 756.0124855344972,491.01080700948296 744.987514465503,491.01080700948296 734.7070351136794,494.99348592811157 726.5594831815929,502.4209609086223 721.6452307048155,512.2901102978375 720.627974711149,523.2680507838991 723.6451012593482,533.8721506732961 730.2891306906033,542.6702675166198 739.6627500143854,548.4741668821307 750.5,550.5" stroke-width="0" /><text clip-path="url(#border_clip)" fill="black" style="font-family: Arial; font-size: 33.0; font-style: normal;" text-anchor="middle" x="749.5" y="541.5">55</text><polygon clip-path="url(#border_clip)" fill="#008000" fill-rule="evenodd" points="750.5,450.5 761.3372499856146,448.4741668821307 770.7108693093967,442.6702675166198 777.3548987406518,433.8721506732962 780.3720252888511,423.26805078389907 779.3547692951846,412.29011029783754 774.4405168184072,402.4209609086223 766.2929648863208,394.99348592811157 756.0124855344972,391.0108070094829 744.987514465503,391.0108070094829 734.7070351136794,394.9934859281115 726.5594831815929,402.42096090862225 721.6452307048155,412.29011029783743 720.627974711149,423.26805078389896 723.6451012593482,433.87215067329606 730.2891306906033,442.6702675166197 739.6627500143854,448.4741668821306 750.5,450.49999999999994" stroke-width="0" /><text clip-path="url(#border_clip)" fill="black" style="font-family: Arial; font-size: 33.0; font-style: normal;" text-anchor="middle" x="749.5" y="441.5">55</text><polygon clip-path="url(#border_clip)" fill="#008000" fill-rule="evenodd" points="750.5,350.5 761.3372499856146,348.4741668821307 770.7108693093967,342.67026751661984 777.354898740652,333.87215067329623 780.3720252888511,323.2680507838991 779.3547692951846,312.2901102978376 774.4405168184073,302.42096090862236 766.2929648863208,294.9934859281116 756.0124855344973,291.01080700948296 744.987514465503,291.01080700948296 734.7070351136795,294.99348592811157 726.5594831815929,302.4209609086223 721.6452307048155,312.2901102978375 720.627974711149,323.268050783899 723.6451012593482,333.8721506732961 730.2891306906033,342.6702675166198 739.6627500143854,348.4741668821307 750.5,350.50000000000006" stroke-width="0" /><text clip-path="url(#border_clip)" fill="black" style="font-family: Arial; font-size: 33.0; font-style: normal;" text-anchor="middle" x="749.5" y="341.5">55</text><polygon clip-path="url(#border_clip)" fill="#008000" fill-rule="evenodd" points="850.5,750.5 861.3372499856146,748.4741668821307 870.7108693093967,742.6702675166198 877.354898740652,733.8721506732962 880.3720252888511,723.2680507838992 879.3547692951847,712.2901102978376 874.4405168184073,702.4209609086224 866.2929648863208,694.9934859281116 856.0124855344973,691.010807009483 844.9875144655031,691.010807009483 834.7070351136795,694.9934859281116 826.5594831815929,702.4209609086222 821.6452307048155,712.2901102978374 820.627974711149,723.268050783899 823.6451012593482,733.8721506732961 830.2891306906033,742.6702675166197 839.6627500143854,748.4741668821306 850.5,750.5" stroke-width="0" /><text clip-path="url(#border_clip)" fill="black" style="font-family: Arial; font-size: 33.0; font-style: normal;" text-anchor="middle" x="849.5" y="741.5">55</text><polygon clip-path="url(#border_clip)" fill="#008000" fill-rule="evenodd" points="850.5,650.5 861.3372499856146,648.4741668821307 870.7108693093967,642.6702675166198 877.354898740652,633.8721506732962 880.3720252888511,623.2680507838992 879.3547692951847,612.2901102978376 874.4405168184073,602.4209609086224 866.2929648863209,594.9934859281116 856.0124855344973,591.010807009483 844.9875144655031,591.010807009483 834.7070351136795,594.9934859281116 826.559483181593,602.4209609086222 821.6452307048155,612.2901102978374 820.627974711149,623.268050783899 823.6451012593482,633.8721506732961 830.2891306906033,642.6702675166198 839.6627500143854,648.4741668821307 850.5,650.5" stroke-width="0" /><text clip-path="url(#border_clip)" fill="black" style="font-family: Arial; font-size: 33.0; font-style: normal;" text-anchor="middle" x="849.5" y="641.5">55</text><polygon clip-path="url(#border_clip)" fill="#008000" fill-rule="evenodd" points="850.5,550.5 861.3372499856146,548.4741668821307 870.7108693093968,542.6702675166198 877.354898740652,533.8721506732962 880.3720252888511,523.2680507838992 879.3547692951847,512.2901102978376 874.4405168184073,502.42096090862236 866.2929648863209,494.99348592811157 856.0124855344973,491.0108070094829 844.9875144655031,491.01080700948285 834.7070351136795,494.99348592811145 826.559483181593,502.42096090862213 821.6452307048155,512.2901102978374 820.627974711149,523.2680507838988 823.6451012593482,533.872150673296 830.2891306906033,542.6702675166196 839.6627500143854,548.4741668821306 850.5,550.4999999999999" stroke-width="0" /><text clip-path="url(#border_clip)" fill="black" style="font-family: Arial; font-size: 33.0; font-style: normal;" text-anchor="middle" x="849.5" y="541.5">55</text><polygon clip-path="url(#border_clip)" fill="#008000" fill-rule="evenodd" points="850.5,450.5 861.3372499856146,448.4741668821307 870.7108693093968,442.67026751661984 877.354898740652,433.87215067329623 880.3720252888511,423.2680507838991 879.3547692951847,412.2901102978376 874.4405168184073,402.42096090862236 866.2929648863209,394.99348592811157 856.0124855344973,391.0108070094829 844.9875144655031,391.01080700948285 834.7070351136795,394.99348592811145 826.559483181593,402.42096090862213 821.6452307048155,412.2901102978373 820.627974711149,423.26805078389884 823.6451012593482,433.87215067329595 830.2891306906033,442.6702675166196 839.6627500143854,448.4741668821306 850.5,450.49999999999994" stroke-width="0" /><text clip-path="url(#border_clip)" fill="black" style="font-family: Arial; font-size: 33.0; font-style: normal;" text-anchor="middle" x="849.5" y="441.5">55</text><polygon clip-path="url(#border_clip)" fill="#008000" fill-rule="evenodd" points="850.5,350.5 861.3372499856146,348.4741668821307 870.7108693093968,342.67026751661984 877.354898740652,333.87215067329623 880.3720252888512,323.2680507838991 879.3547692951847,312.29011029783754 874.4405168184074,302.4209609086223 866.2929648863209,294.9934859281115 856.0124855344974,291.01080700948285 844.9875144655032,291.0108070094828 834.7070351136796,294.9934859281114 826.559483181593,302.4209609086221 821.6452307048155,312.29011029783726 820.627974711149,323.2680507838988 823.6451012593482,333.8721506732959 830.2891306906033,342.67026751661956 839.6627500143854,348.47416688213053 850.5,350.4999999999999" stroke-width="0" /><text clip-path="url(#border_clip)" fill="black" style="font-family: Arial; font-size: 33.0; font-style: normal;" text-anchor="middle" x="849.5" y="341.5">55</text><polygon clip-path="url(#border_clip)" fill="#008000" fill-rule="evenodd" points="950.5,750.5 961.3372499856146,748.4741668821307 970.7108693093968,742.6702675166199 977.354898740652,733.8721506732962 980.3720252888512,723.2680507838992 979.3547692951848,712.2901102978376 974.4405168184074,702.4209609086224 966.292964886321,694.9934859281116 956.0124855344975,691.010807009483 944.9875144655032,691.0108070094828 934.7070351136796,694.9934859281115 926.5594831815931,702.4209609086222 921.6452307048156,712.2901102978374 920.6279747111491,723.2680507838988 923.6451012593482,733.872150673296 930.2891306906033,742.6702675166197 939.6627500143854,748.4741668821306 950.5,750.5" stroke-width="0" /><text clip-path="url(#border_clip)" fill="black" style="font-family: Arial; font-size: 33.0; font-style: normal;" text-anchor="middle" x="949.5" y="741.5">55</text><polygon clip-path="url(#border_clip)" fill="#008000" fill-rule="evenodd" points="950.5,650.5 961.3372499856146,648.4741668821307 970.7108693093968,642.6702675166199 977.354898740652,633.8721506732962 980.3720252888512,623.2680507838992 979.3547692951848,612.2901102978376 974.4405168184074,602.4209609086224 966.292964886321,594.9934859281116 956.0124855344975,591.010807009483 944.9875144655032,591.0108070094828 934.7070351136796,594.9934859281115 926.5594831815931,602.4209609086221 921.6452307048156,612.2901102978373 920.6279747111491,623.2680507838988 923.6451012593482,633.8721506732959 930.2891306906033,642.6702675166196 939.6627500143854,648.4741668821306 950.5,650.5" stroke-width="0" /><text clip-path="url(#border_clip)" fill="black" style="font-family: Arial; font-size: 33.0; font-style: normal;" text-anchor="middle" x="949.5" y="641.5">55</text><polygon clip-path="url(#border_clip)" fill="#008000" fill-rule="evenodd" points="950.5,550.5 961.3372499856146,548.4741668821307 970.7108693093968,542.6702675166199 977.3548987406521,533.8721506732963 980.3720252888512,523.2680507838992 979.3547692951848,512.2901102978376 974.4405168184076,502.4209609086224 966.292964886321,494.9934859281116 956.0124855344975,491.01080700948296 944.9875144655032,491.0108070094829 934.7070351136797,494.99348592811145 926.5594831815931,502.4209609086222 921.6452307048156,512.2901102978374 920.6279747111491,523.2680507838988 923.6451012593482,533.872150673296 930.2891306906033,542.6702675166197 939.6627500143854,548.4741668821307 950.5,550.5" stroke-width="0" /><text clip-path="url(#border_clip)" fill="black" style="font-family: Arial; font-size: 33.0; font-style: normal;" text-anchor="middle" x="949.5" y="541.5">55</text><polygon clip-path="url(#border_clip)" fill="#008000" fill-rule="evenodd" points="950.5,450.5 961.3372499856146,448.47416688213076 970.7108693093968,442.6702675166199 977.3548987406521,433.8721506732963 980.3720252888512,423.2680507838992 979.3547692951848,412.2901102978376 974.4405168184076,402.42096090862236 966.292964886321,394.99348592811157 956.0124855344975,391.01080700948285 944.9875144655033,391.0108070094828 934.7070351136797,394.99348592811134 926.5594831815931,402.420960908622 921.6452307048156,412.2901102978372 920.6279747111491,423.26805078389873 923.6451012593482,433.87215067329583 930.2891306906033,442.6702675166195 939.6627500143854,448.4741668821305 950.5,450.4999999999999" stroke-width="0" /><text clip-path="url(#border_clip)" fill="black" style="font-family: Arial; font-size: 33.0; font-style: normal;" text-anchor="middle" x="949.5" y="441.5">55</text><polygon clip-path="url(#border_clip)" fill="#008000" fill-rule="evenodd" points="950.5,350.5 961.3372499856146,348.47416688213076 970.7108693093968,342.6702675166199 977.3548987406521,333.87215067329635 980.3720252888512,323.2680507838993 979.3547692951848,312.2901102978377 974.4405168184076,302.4209609086225 966.292964886321,294.9934859281117 956.0124855344975,291.01080700948296 944.9875144655033,291.0108070094829 934.7070351136797,294.99348592811145 926.5594831815931,302.42096090862213 921.6452307048156,312.2901102978373 920.6279747111491,323.26805078389884 923.6451012593482,333.87215067329595 930.2891306906033,342.6702675166196 939.6627500143854,348.4741668821306 950.5,350.5" stroke-width="0" /><text clip-path="url(#border_clip)" fill="black" style="font-family: Arial; font-size: 33.0; font-style: normal;" text-anchor="middle" x="949.5" y="341.5">55</text><polygon clip-path="url(#border_clip)" fill="#008000" fill-rule="evenodd" points="1050.5,750.5 1061.3372499856146,748.4741668821307 1070.710869309397,742.6702675166199 1077.354898740652,733.8721506732963 1080.3720252888513,723.2680507838993 1079.354769295185,712.2901102978377 1074.4405168184076,702.4209609086224 1066.292964886321,694.9934859281117 1056.0124855344975,691.010807009483 1044.9875144655034,691.0108070094828 1034.7070351136797,694.9934859281113 1026.5594831815931,702.4209609086221 1021.6452307048157,712.2901102978373 1020.6279747111491,723.2680507838988 1023.6451012593483,733.8721506732959 1030.2891306906033,742.6702675166196 1039.6627500143854,748.4741668821306 1050.5,750.5" stroke-width="0" /><text clip-path="url(#border_clip)" fill="black" style="font-family: Arial; font-size: 33.0; font-style: normal;" text-anchor="middle" x="1049.5" y="741.5">55</text><polygon clip-path="url(#border_clip)" fill="#008000" fill-rule="evenodd" points="1050.5,650.5 1061.3372499856146,648.4741668821307 1070.710869309397,642.6702675166199 1077.354898740652,633.8721506732963 1080.3720252888513,623.2680507838993 1079.354769295185,612.2901102978377 1074.4405168184076,602.4209609086224 1066.2929648863212,594.9934859281116 1056.0124855344975,591.010807009483 1044.9875144655034,591.0108070094828 1034.7070351136797,594.9934859281113 1026.5594831815931,602.4209609086221 1021.6452307048157,612.2901102978373 1020.6279747111491,623.2680507838988 1023.6451012593483,633.8721506732959 1030.2891306906033,642.6702675166196 1039.6627500143854,648.4741668821306 1050.5,650.5" stroke-width="0" /><text clip-path="url(#border_clip)" fill="black" style="font-family: Arial; font-size: 33.0; font-style: normal;" text-anchor="middle" x="1049.5" y="641.5">55</text><polygon clip-path="url(#border_clip)" fill="#008000" fill-rule="evenodd" points="1050.5,550.5 1061.3372499856146,548.4741668821307 1070.710869309397,542.6702675166199 1077.354898740652,533.8721506732963 1080.3720252888513,523.2680507838993 1079.354769295185,512.2901102978377 1074.4405168184076,502.4209609086224 1066.2929648863212,494.99348592811157 1056.0124855344975,491.01080700948285 1044.9875144655034,491.01080700948273 1034.7070351136797,494.9934859281113 1026.5594831815931,502.42096090862196 1021.6452307048157,512.2901102978371 1020.6279747111491,523.2680507838987 1023.6451012593482,533.8721506732959 1030.2891306906033,542.6702675166196 1039.6627500143854,548.4741668821305 1050.5,550.5" stroke-width="0" /><text clip-path="url(#border_clip)" fill="black" style="font-family: Arial; font-size: 33.0; font-style: normal;" text-anchor="middle" x="1049.5" y="541.5">55</text><polygon clip-path="url(#border_clip)" fill="#008000" fill-rule="evenodd" points="1050.5,450.5 1061.3372499856146,448.47416688213076 1070.710869309397,442.67026751661996 1077.354898740652,433.8721506732964 1080.3720252888513,423.2680507838993 1079.354769295185,412.2901102978377 1074.4405168184076,402.4209609086224 1066.2929648863212,394.99348592811157 1056.0124855344977,391.01080700948285 1044.9875144655034,391.01080700948273 1034.70703511368,394.9934859281113 1026.5594831815934,402.42096090862196 1021.6452307048157,412.29011029783715 1020.6279747111491,423.26805078389873 1023.6451012593482,433.8721506732959 1030.2891306906033,442.6702675166196 1039.6627500143854,448.47416688213065 1050.5,450.50000000000006" stroke-width="0" /><text clip-path="url(#border_clip)" fill="black" style="font-family: Arial; font-size: 33.0; font-style: normal;" text-anchor="middle" x="1049.5" y="441.5">55</text><polygon clip-path="url(#border_clip)" fill="#008000" fill-rule="evenodd" points="1050.5,350.5 1061.3372499856146,348.47416688213076 1070.710869309397,342.67026751661996 1077.354898740652,333.8721506732964 1080.3720252888513,323.2680507838993 1079.354769295185,312.2901102978377 1074.4405168184076,302.4209609086224 1066.2929648863212,294.99348592811157 1056.0124855344977,291.01080700948285 1044.9875144655034,291.01080700948273 1034.70703511368,294.9934859281113 1026.5594831815931,302.42096090862196 1021.6452307048157,312.29011029783715 1020.6279747111491,323.26805078389873 1023.6451012593482,333.8721506732959 1030.2891306906033,342.6702675166196 1039.6627500143854,348.47416688213065 1050.5,350.5000000000001" stroke-width="0" /><text clip-path="url(#border_clip)" fill="black" style="font-family: Arial; font-size: 33.0; font-style: normal;" text-anchor="middle" x="1049.5" y="341.5">55</text><polygon clip-path="url(#border_clip)" fill="#008000" fill-rule="evenodd" points="1150.5,750.5 1161.3372499856146,748.4741668821308 1170.710869309397,742.6702675166199 1177.354898740652,733.8721506732963 1180.3720252888513,723.2680507838993 1179.354769295185,712.2901102978377 1174.4405168184078,702.4209609086224 1166.2929648863212,694.9934859281116 1156.0124855344977,691.0108070094828 1144.9875144655034,691.0108070094827 1134.70703511368,694.9934859281112 1126.5594831815931,702.420960908622 1121.6452307048157,712.2901102978371 1120.6279747111491,723.2680507838986 1123.6451012593482,733.8721506732958 1130.2891306906033,742.6702675166196 1139.6627500143854,748.4741668821306 1150.5,750.5" stroke-width="0" /><text clip-path="url(#border_clip)" fill="black" style="font-family: Arial; font-size: 33.0; font-style: normal;" text-anchor="middle" x="1149.5" y="741.5">55</text><polygon clip-path="url(#border_clip)" fill="#008000" fill-rule="evenodd" points="1150.5,650.5 1161.3372499856146,648.4741668821308 1170.710869309397,642.67026751662 1177.354898740652,633.8721506732963 1180.3720252888515,623.2680507838993 1179.3547692951852,612.2901102978377 1174.4405168184078,602.4209609086224 1166.2929648863214,594.9934859281116 1156.0124855344977,591.0108070094828 1144.9875144655034,591.0108070094827 1134.70703511368,594.9934859281112 1126.5594831815934,602.4209609086219 1121.6452307048157,612.290110297837 1120.6279747111491,623.2680507838986 1123.6451012593482,633.8721506732958 1130.2891306906033,642.6702675166196 1139.6627500143854,648.4741668821305 1150.5,650.5" stroke-width="0" /><text clip-path="url(#border_clip)" fill="black" style="font-family: Arial; font-size: 33.0; font-style: normal;" text-anchor="middle" x="1149.5" y="641.5">55</text><polygon clip-path="url(#border_clip)" fill="#008000" fill-rule="evenodd" points="1150.5,550.5 1161.3372499856146,548.4741668821308 1170.710869309397,542.67026751662 1177.354898740652,533.8721506732963 1180.3720252888515,523.2680507838993 1179.3547692951852,512.2901102978377 1174.4405168184078,502.4209609086224 1166.2929648863214,494.99348592811157 1156.0124855344977,491.01080700948285 1144.9875144655034,491.01080700948273 1134.70703511368,494.9934859281112 1126.5594831815934,502.4209609086219 1121.6452307048157,512.2901102978371 1120.6279747111491,523.2680507838986 1123.6451012593482,533.8721506732958 1130.2891306906033,542.6702675166196 1139.6627500143854,548.4741668821306 1150.5,550.5" stroke-width="0" /><text clip-path="url(#border_clip)" fill="black" style="font-family: Arial; font-size: 33.0; font-style: normal;" text-anchor="middle" x="1149.5" y="541.5">55</text><polygon clip-path="url(#border_clip)" fill="#008000" fill-rule="evenodd" points="1150.5,450.5 1161.3372499856146,448.4741668821308 1170.710869309397,442.67026751662 1177.354898740652,433.87215067329646 1180.3720252888515,423.26805078389935 1179.3547692951852,412.29011029783777 1174.4405168184078,402.4209609086225 1166.2929648863214,394.9934859281116 1156.0124855344977,391.01080700948285 1144.9875144655034,391.01080700948273 1134.70703511368,394.9934859281112 1126.5594831815934,402.4209609086219 1121.6452307048157,412.2901102978371 1120.6279747111491,423.2680507838987 1123.6451012593482,433.87215067329583 1130.2891306906033,442.67026751661956 1139.6627500143854,448.4741668821306 1150.5,450.50000000000006" stroke-width="0" /><text clip-path="url(#border_clip)" fill="black" style="font-family: Arial; font-size: 33.0; font-style: normal;" text-anchor="middle" x="1149.5" y="441.5">55</text><polygon clip-path="url(#border_clip)" fill="#008000" fill-rule="evenodd" points="1150.5,350.5 1161.3372499856146,348.4741668821308 1170.710869309397,342.67026751662 1177.354898740652,333.87215067329646 1180.3720252888515,323.26805078389935 1179.3547692951852,312.29011029783777 1174.4405168184078,302.4209609086225 1166.2929648863214,294.9934859281116 1156.012485534498,291.01080700948285 1144.9875144655036,291.01080700948273 1134.70703511368,294.9934859281112 1126.5594831815934,302.42096090862185 1121.6452307048157,312.29011029783703 1120.6279747111491,323.2680507838986 1123.6451012593482,333.8721506732958 1130.2891306906033,342.6702675166195 1139.6627500143854,348.47416688213053 1150.5,350.5" stroke-width="0" /><text clip-path="url(#border_clip)" fill="black" style="font-family: Arial; font-size: 33.0; font-style: normal;" text-anchor="middle" x="1149.5" y="341.5">55</text><polygon clip-path="url(#border_clip)" fill="#0000ff" fill-rule="evenodd" points="1150.5,350.5 690.5,810.5 1190.5000000000014,810.5000000000064 1190.5000000000018,760.5000000000063 690.5000000000007,760.4999999999998 690.5,810.5" stroke-width="0" /><polyline clip-path="url(#border_clip)" fill="none" points="750.5,750.5 761.3372499856146,748.4741668821307 770.7108693093967,742.6702675166198 777.3548987406518,733.8721506732961 780.3720252888511,723.2680507838991 779.3547692951846,712.2901102978375 774.4405168184072,702.4209609086223 766.2929648863206,694.9934859281116 756.0124855344972,691.010807009483 744.9875144655028,691.010807009483 734.7070351136794,694.9934859281116 726.5594831815928,702.4209609086223 721.6452307048154,712.2901102978375 720.6279747111489,723.2680507838991 723.6451012593482,733.8721506732961 730.2891306906033,742.6702675166198 739.6627500143854,748.4741668821307 750.5,750.5" stroke="black" stroke-linecap="round" stroke-width="5" /><polyline clip-path="url(#border_clip)" fill="none" points="750.5,650.5 761.3372499856146,648.4741668821307 770.7108693093967,642.6702675166198 777.3548987406518,633.8721506732961 780.3720252888511,623.2680507838991 779.3547692951846,612.2901102978375 774.4405168184072,602.4209609086223 766.2929648863206,594.9934859281116 756.0124855344972,591.010807009483 744.987514465503,591.010807009483 734.7070351136794,594.9934859281116 726.5594831815928,602.4209609086223 721.6452307048154,612.2901102978375 720.6279747111489,623.2680507838991 723.6451012593482,633.8721506732961 730.2891306906033,642.6702675166198 739.6627500143854,648.4741668821307 750.5,650.5" stroke="black" stroke-linecap="round" stroke-width="5" /><polyline clip-path="url(#border_clip)" fill="none" points="750.5,550.5 761.3372499856146,548.4741668821307 770.7108693093967,542.6702675166198 777.3548987406518,533.8721506732961 780.3720252888511,523.2680507838991 779.3547692951846,512.2901102978376 774.4405168184072,502.4209609086223 766.2929648863208,494.99348592811157 756.0124855344972,491.01080700948296 744.987514465503,491.01080700948296 734.7070351136794,494.99348592811157 726.5594831815929,502.4209609086223 721.6452307048155,512.2901102978375 720.627974711149,523.2680507838991 723.6451012593482,533.8721506732961 730.2891306906033,542.6702675166198 739.6627500143854,548.4741668821307 750.5,550.5" stroke="black" stroke-linecap="round" stroke-width="5" /><polyline clip-path="url(#border_clip)" fill="none" points="750.5,450.5 761.3372499856146,448.4741668821307 770.7108693093967,442.6702675166198 777.3548987406518,433.8721506732962 780.3720252888511,423.26805078389907 779.3547692951846,412.29011029783754 774.4405168184072,402.4209609086223 766.2929648863208,394.99348592811157 756.0124855344972,391.0108070094829 744.987514465503,391.0108070094829 734.7070351136794,394.9934859281115 726.5594831815929,402.42096090862225 721.6452307048155,412.29011029783743 720.627974711149,423.26805078389896 723.6451012593482,433.87215067329606 730.2891306906033,442.6702675166197 739.6627500143854,448.4741668821306 750.5,450.49999999999994" stroke="black" stroke-linecap="round" stroke-width="5" /><polyline clip-path="url(#border_clip)" fill="none" points="750.5,350.5 761.3372499856146,348.4741668821307 770.7108693093967,342.67026751661984 777.354898740652,333.87215067329623 780.3720252888511,323.2680507838991 779.3547692951846,312.2901102978376 774.4405168184073,302.42096090862236 766.2929648863208,294.9934859281116 756.0124855344973,291.01080700948296 744.987514465503,291.01080700948296 734.7070351136795,294.99348592811157 726.5594831815929,302.4209609086223 721.6452307048155,312.2901102978375 720.627974711149,323.268050783899 723.6451012593482,333.8721506732961 730.2891306906033,342.6702675166198 739.6627500143854,348.4741668821307 750.5,350.50000000000006" stroke="black" stroke-linecap="round" stroke-width="5" /><polyline clip-path="url(#border_clip)" fill="none" points="850.5,750.5 861.3372499856146,748.4741668821307 870.7108693093967,742.6702675166198 877.354898740652,733.8721506732962 880.3720252888511,723.2680507838992 879.3547692951847,712.2901102978376 874.4405168184073,702.4209609086224 866.2929648863208,694.9934859281116 856.0124855344973,691.010807009483 844.9875144655031,691.010807009483 834.7070351136795,694.9934859281116 826.5594831815929,702.4209609086222 821.6452307048155,712.2901102978374 820.627974711149,723.268050783899 823.6451012593482,733.8721506732961 830.2891306906033,742.6702675166197 839.6627500143854,748.4741668821306 850.5,750.5" stroke="black" stroke-linecap="round" stroke-width="5" /><polyline clip-path="url(#border_clip)" fill="none" points="850.5,650.5 861.3372499856146,648.4741668821307 870.7108693093967,642.6702675166198 877.354898740652,633.8721506732962 880.3720252888511,623.2680507838992 879.3547692951847,612.2901102978376 874.4405168184073,602.4209609086224 866.2929648863209,594.9934859281116 856.0124855344973,591.010807009483 844.9875144655031,591.010807009483 834.7070351136795,594.9934859281116 826.559483181593,602.4209609086222 821.6452307048155,612.2901102978374 820.627974711149,623.268050783899 823.6451012593482,633.8721506732961 830.2891306906033,642.6702675166198 839.6627500143854,648.4741668821307 850.5,650.5" stroke="black" stroke-linecap="round" stroke-width="5" /><polyline clip-path="url(#border_clip)" fill="none" points="850.5,550.5 861.3372499856146,548.4741668821307 870.7108693093968,542.6702675166198 877.354898740652,533.8721506732962 880.3720252888511,523.2680507838992 879.3547692951847,512.2901102978376 874.4405168184073,502.42096090862236 866.2929648863209,494.99348592811157 856.0124855344973,491.0108070094829 844.9875144655031,491.01080700948285 834.7070351136795,494.99348592811145 826.559483181593,502.42096090862213 821.6452307048155,512.2901102978374 820.627974711149,523.2680507838988 823.6451012593482,533.872150673296 830.2891306906033,542.6702675166196 839.6627500143854,548.4741668821306 850.5,550.4999999999999" stroke="black" stroke-linecap="round" stroke-width="5" /><polyline clip-path="url(#border_clip)" fill="none" points="850.5,450.5 861.3372499856146,448.4741668821307 870.7108693093968,442.67026751661984 877.354898740652,433.87215067329623 880.3720252888511,423.2680507838991 879.3547692951847,412.2901102978376 874.4405168184073,402.42096090862236 866.2929648863209,394.99348592811157 856.0124855344973,391.0108070094829 844.9875144655031,391.01080700948285 834.7070351136795,394.99348592811145 826.559483181593,402.42096090862213 821.6452307048155,412.2901102978373 820.627974711149,423.26805078389884 823.6451012593482,433.87215067329595 830.2891306906033,442.6702675166196 839.6627500143854,448.4741668821306 850.5,450.49999999999994" stroke="black" stroke-linecap="round" stroke-width="5" /><polyline clip-path="url(#border_clip)" fill="none" points="850.5,350.5 861.3372499856146,348.4741668821307 870.7108693093968,342.67026751661984 877.354898740652,333.87215067329623 880.3720252888512,323.2680507838991 879.3547692951847,312.29011029783754 874.4405168184074,302.4209609086223 866.2929648863209,294.9934859281115 856.0124855344974,291.01080700948285 844.9875144655032,291.0108070094828 834.7070351136796,294.9934859281114 826.559483181593,302.4209609086221 821.6452307048155,312.29011029783726 820.627974711149,323.2680507838988 823.6451012593482,333.8721506732959 830.2891306906033,342.67026751661956 839.6627500143854,348.47416688213053 850.5,350.4999999999999" stroke="black" stroke-linecap="round" stroke-width="5" /><polyline clip-path="url(#border_clip)" fill="none" points="950.5,750.5 961.3372499856146,748.4741668821307 970.7108693093968,742.6702675166199 977.354898740652,733.8721506732962 980.3720252888512,723.2680507838992 979.3547692951848,712.2901102978376 974.4405168184074,702.4209609086224 966.292964886321,694.9934859281116 956.0124855344975,691.010807009483 944.9875144655032,691.0108070094828 934.7070351136796,694.9934859281115 926.5594831815931,702.4209609086222 921.6452307048156,712.2901102978374 920.6279747111491,723.2680507838988 923.6451012593482,733.872150673296 930.2891306906033,742.6702675166197 939.6627500143854,748.4741668821306 950.5,750.5" stroke="black" stroke-linecap="round" stroke-width="5" /><polyline clip-path="url(#border_clip)" fill="none" points="950.5,650.5 961.3372499856146,648.4741668821307 970.7108693093968,642.6702675166199 977.354898740652,633.8721506732962 980.3720252888512,623.2680507838992 979.3547692951848,612.2901102978376 974.4405168184074,602.4209609086224 966.292964886321,594.9934859281116 956.0124855344975,591.010807009483 944.9875144655032,591.0108070094828 934.7070351136796,594.9934859281115 926.5594831815931,602.4209609086221 921.6452307048156,612.2901102978373 920.6279747111491,623.2680507838988 923.6451012593482,633.8721506732959 930.2891306906033,642.6702675166196 939.6627500143854,648.4741668821306 950.5,650.5" stroke="black" stroke-linecap="round" stroke-width="5" /><polyline clip-path="url(#border_clip)" fill="none" points="950.5,550.5 961.3372499856146,548.4741668821307 970.7108693093968,542.6702675166199 977.3548987406521,533.8721506732963 980.3720252888512,523.2680507838992 979.3547692951848,512.2901102978376 974.4405168184076,502.4209609086224 966.292964886321,494.9934859281116 956.0124855344975,491.01080700948296 944.9875144655032,491.0108070094829 934.7070351136797,494.99348592811145 926.5594831815931,502.4209609086222 921.6452307048156,512.2901102978374 920.6279747111491,523.2680507838988 923.6451012593482,533.872150673296 930.2891306906033,542.6702675166197 939.6627500143854,548.4741668821307 950.5,550.5" stroke="black" stroke-linecap="round" stroke-width="5" /><polyline clip-path="url(#border_clip)" fill="none" points="950.5,450.5 961.3372499856146,448.47416688213076 970.7108693093968,442.6702675166199 977.3548987406521,433.8721506732963 980.3720252888512,423.2680507838992 979.3547692951848,412.2901102978376 974.4405168184076,402.42096090862236 966.292964886321,394.99348592811157 956.0124855344975,391.01080700948285 944.9875144655033,391.0108070094828 934.7070351136797,394.99348592811134 926.5594831815931,402.420960908622 921.6452307048156,412.2901102978372 920.6279747111491,423.26805078389873 923.6451012593482,433.87215067329583 930.2891306906033,442.6702675166195 939.6627500143854,448.4741668821305 950.5,450.4999999999999" stroke="black" stroke-linecap="round" stroke-width="5" /><polyline clip-path="url(#border_clip)" fill="none" points="950.5,350.5 961.3372499856146,348.47416688213076 970.7108693093968,342.6702675166199 977.3548987406521,333.87215067329635 980.3720252888512,323.2680507838993 979.3547692951848,312.2901102978377 974.4405168184076,302.4209609086225 966.292964886321,294.9934859281117 956.0124855344975,291.01080700948296 944.9875144655033,291.0108070094829 934.7070351136797,294.99348592811145 926.5594831815931,302.42096090862213 921.6452307048156,312.2901102978373 920.6279747111491,323.26805078389884 923.6451012593482,333.87215067329595 930.2891306906033,342.6702675166196 939.6627500143854,348.4741668821306 950.5,350.5" stroke="black" stroke-linecap="round" stroke-width="5" /><polyline clip-path="url(#border_clip)" fill="none" points="1050.5,750.5 1061.3372499856146,748.4741668821307 1070.710869309397,742.6702675166199 1077.354898740652,733.8721506732963 1080.3720252888513,723.2680507838993 1079.354769295185,712.2901102978377 1074.4405168184076,702.4209609086224 1066.292964886321,694.9934859281117 1056.0124855344975,691.010807009483 1044.9875144655034,691.0108070094828 1034.7070351136797,694.9934859281113 1026.5594831815931,702.4209609086221 1021.6452307048157,712.2901102978373 1020.6279747111491,723.2680507838988 1023.6451012593483,733.8721506732959 1030.2891306906033,742.6702675166196 1039.6627500143854,748.4741668821306 1050.5,750.5" stroke="black" stroke-linecap="round" stroke-width="5" /><polyline clip-path="url(#border_clip)" fill="none" points="1050.5,650.5 1061.3372499856146,648.4741668821307 1070.710869309397,642.6702675166199 1077.354898740652,633.8721506732963 1080.3720252888513,623.2680507838993 1079.354769295185,612.2901102978377 1074.4405168184076,602.4209609086224 1066.2929648863212,594.9934859281116 1056.0124855344975,591.010807009483 1044.9875144655034,591.0108070094828 1034.7070351136797,594.9934859281113 1026.5594831815931,602.4209609086221 1021.6452307048157,612.2901102978373 1020.6279747111491,623.2680507838988 1023.6451012593483,633.8721506732959 1030.2891306906033,642.6702675166196 1039.6627500143854,648.4741668821306 1050.5,650.5" stroke="black" stroke-linecap="round" stroke-width="5" /><polyline clip-path="url(#border_clip)" fill="none" points="1050.5,550.5 1061.3372499856146,548.4741668821307 1070.710869309397,542.6702675166199 1077.354898740652,533.8721506732963 1080.3720252888513,523.2680507838993 1079.354769295185,512.2901102978377 1074.4405168184076,502.4209609086224 1066.2929648863212,494.99348592811157 1056.0124855344975,491.01080700948285 1044.9875144655034,491.01080700948273 1034.7070351136797,494.9934859281113 1026.5594831815931,502.42096090862196 1021.6452307048157,512.2901102978371 1020.6279747111491,523.2680507838987 1023.6451012593482,533.8721506732959 1030.2891306906033,542.6702675166196 1039.6627500143854,548.4741668821305 1050.5,550.5" stroke="black" stroke-linecap="round" stroke-width="5" /><polyline clip-path="url(#border_clip)" fill="none" points="1050.5,450.5 1061.3372499856146,448.47416688213076 1070.710869309397,442.67026751661996 1077.354898740652,433.8721506732964 1080.3720252888513,423.2680507838993 1079.354769295185,412.2901102978377 1074.4405168184076,402.4209609086224 1066.2929648863212,394.99348592811157 1056.0124855344977,391.01080700948285 1044.9875144655034,391.01080700948273 1034.70703511368,394.9934859281113 1026.5594831815934,402.42096090862196 1021.6452307048157,412.29011029783715 1020.6279747111491,423.26805078389873 1023.6451012593482,433.8721506732959 1030.2891306906033,442.6702675166196 1039.6627500143854,448.47416688213065 1050.5,450.50000000000006" stroke="black" stroke-linecap="round" stroke-width="5" /><polyline clip-path="url(#border_clip)" fill="none" points="1050.5,350.5 1061.3372499856146,348.47416688213076 1070.710869309397,342.67026751661996 1077.354898740652,333.8721506732964 1080.3720252888513,323.2680507838993 1079.354769295185,312.2901102978377 1074.4405168184076,302.4209609086224 1066.2929648863212,294.99348592811157 1056.0124855344977,291.01080700948285 1044.9875144655034,291.01080700948273 1034.70703511368,294.9934859281113 1026.5594831815931,302.42096090862196 1021.6452307048157,312.29011029783715 1020.6279747111491,323.26805078389873 1023.6451012593482,333.8721506732959 1030.2891306906033,342.6702675166196 1039.6627500143854,348.47416688213065 1050.5,350.5000000000001" stroke="black" stroke-linecap="round" stroke-width="5" /><polyline clip-path="url(#border_clip)" fill="none" points="1150.5,750.5 1161.3372499856146,748.4741668821308 1170.710869309397,742.6702675166199 1177.354898740652,733.8721506732963 1180.3720252888513,723.2680507838993 1179.354769295185,712.2901102978377 1174.4405168184078,702.4209609086224 1166.2929648863212,694.9934859281116 1156.0124855344977,691.0108070094828 1144.9875144655034,691.0108070094827 1134.70703511368,694.9934859281112 1126.5594831815931,702.420960908622 1121.6452307048157,712.2901102978371 1120.6279747111491,723.2680507838986 1123.6451012593482,733.8721506732958 1130.2891306906033,742.6702675166196 1139.6627500143854,748.4741668821306 1150.5,750.5" stroke="black" stroke-linecap="round" stroke-width="5" /><polyline clip-path="url(#border_clip)" fill="none" points="1150.5,650.5 1161.3372499856146,648.4741668821308 1170.710869309397,642.67026751662 1177.354898740652,633.8721506732963 1180.3720252888515,623.2680507838993 1179.3547692951852,612.2901102978377 1174.4405168184078,602.4209609086224 1166.2929648863214,594.9934859281116 1156.0124855344977,591.0108070094828 1144.9875144655034,591.0108070094827 1134.70703511368,594.9934859281112 1126.5594831815934,602.4209609086219 1121.6452307048157,612.290110297837 1120.6279747111491,623.2680507838986 1123.6451012593482,633.8721506732958 1130.2891306906033,642.6702675166196 1139.6627500143854,648.4741668821305 1150.5,650.5" stroke="black" stroke-linecap="round" stroke-width="5" /><polyline clip-path="url(#border_clip)" fill="none" points="1150.5,550.5 1161.3372499856146,548.4741668821308 1170.710869309397,542.67026751662 1177.354898740652,533.8721506732963 1180.3720252888515,523.2680507838993 1179.3547692951852,512.2901102978377 1174.4405168184078,502.4209609086224 1166.2929648863214,494.99348592811157 1156.0124855344977,491.01080700948285 1144.9875144655034,491.01080700948273 1134.70703511368,494.9934859281112 1126.5594831815934,502.4209609086219 1121.6452307048157,512.2901102978371 1120.6279747111491,523.2680507838986 1123.6451012593482,533.8721506732958 1130.2891306906033,542.6702675166196 1139.6627500143854,548.4741668821306 1150.5,550.5" stroke="black" stroke-linecap="round" stroke-width="5" /><polyline clip-path="url(#border_clip)" fill="none" points="1150.5,450.5 1161.3372499856146,448.4741668821308 1170.710869309397,442.67026751662 1177.354898740652,433.87215067329646 1180.3720252888515,423.26805078389935 1179.3547692951852,412.29011029783777 1174.4405168184078,402.4209609086225 1166.2929648863214,394.9934859281116 1156.0124855344977,391.01080700948285 1144.9875144655034,391.01080700948273 1134.70703511368,394.9934859281112 1126.5594831815934,402.4209609086219 1121.6452307048157,412.2901102978371 1120.6279747111491,423.2680507838987 1123.6451012593482,433.87215067329583 1130.2891306906033,442.67026751661956 1139.6627500143854,448.4741668821306 1150.5,450.50000000000006" stroke="black" stroke-linecap="round" stroke-width="5" /><polyline clip-path="url(#border_clip)" fill="none" points="1150.5,350.5 1161.3372499856146,348.4741668821308 1170.710869309397,342.67026751662 1177.354898740652,333.87215067329646 1180.3720252888515,323.26805078389935 1179.3547692951852,312.29011029783777 1174.4405168184078,302.4209609086225 1166.2929648863214,294.9934859281116 1156.012485534498,291.01080700948285 1144.9875144655036,291.01080700948273 1134.70703511368,294.9934859281112 1126.5594831815934,302.42096090862185 1121.6452307048157,312.29011029783703 1120.6279747111491,323.2680507838986 1123.6451012593482,333.8721506732958 1130.2891306906033,342.6702675166195 1139.6627500143854,348.47416688213053 1150.5,350.5" stroke="black" stroke-linecap="round" stroke-width="5" /></svg>