<?xml version="1.0" encoding="utf-8" ?>
<svg baseProfile="full" height="550px" version="1.1" width="1000px" xmlns="http://www.w3.org/2000/svg" xmlns:ev="http://www.w3.org/2001/xml-events" xmlns:xlink="http://www.w3.org/1999/xlink"><defs /><polygon clip-path="url(#border_clip)" fill="#008000" fill-rule="evenodd" points="200.5,475.5 250.5,475.5 250.5,425.5 200.5,425.5 200.5,475.5" stroke-width="0" /><text clip-path="url(#border_clip)" fill="black" style="font-family: Arial; font-size: 24.75; font-style: normal;" text-anchor="middle" x="224.5" y="458.75">A1</text><polygon clip-path="url(#border_clip)" fill="#008000" fill-rule="evenodd" points="200.5,405.5 250.5,405.5 250.50000000000003,355.5 200.5,355.5 200.5,405.5" stroke-width="0" /><text clip-path="url(#border_clip)" fill="black" style="font-family: Arial; font-size: 24.75; font-style: normal;" text-anchor="middle" x="224.5" y="388.75">B1</text><polygon clip-path="url(#border_clip)" fill="#008000" fill-rule="evenodd" points="200.5,335.5 250.5,335.5 250.50000000000003,285.5 200.5,285.5 200.49999999999994,335.5" stroke-width="0" /><text clip-path="url(#border_clip)" fill="black" style="font-family: Arial; font-size: 24.75; font-style: normal;" text-anchor="middle" x="224.5" y="318.75">C1</text><polygon clip-path="url(#border_clip)" fill="#008000" fill-rule="evenodd" points="200.5,265.5 250.5,265.50000000000006 250.50000000000003,215.50000000000003 200.5,215.5 200.49999999999994,265.5" stroke-width="0" /><text clip-path="url(#border_clip)" fill="black" style="font-family: Arial; font-size: 24.75; font-style: normal;" text-anchor="middle" x="224.5" y="248.75">D1</text><polygon clip-path="url(#border_clip)" fill="#008000" fill-rule="evenodd" points="200.5,195.5 250.5,195.50000000000006 250.50000000000006,145.50000000000006 200.50000000000006,145.5 200.5,195.5" stroke-width="0" /><text clip-path="url(#border_clip)" fill="black" style="font-family: Arial; font-size: 24.75; font-style: normal;" text-anchor="middle" x="224.5" y="178.75">E1</text><polygon clip-path="url(#border_clip)" fill="#008000" fill-rule="evenodd" points="200.5,125.5 250.5,125.50000000000006 250.50000000000006,75.50000000000006 200.50000000000006,75.5 200.5,125.5" stroke-width="0" /><text clip-path="url(#border_clip)" fill="black" style="font-family: Arial; font-size: 24.75; font-style: normal;" text-anchor="middle" x="224.5" y="108.75">F1</text><polygon clip-path="url(#border_clip)" fill="#008000" fill-rule="evenodd" points="270.5,475.5 320.5,475.5000000000001 320.5000000000001,425.5000000000001 270.5000000000001,425.5 270.5,475.5" stroke-width="0" /><text clip-path="url(#border_clip)" fill="black" style="font-family: Arial; font-size: 24.75; font-style: normal;" text-anchor="middle" x="294.5" y="458.75">A2</text><polygon clip-path="url(#border_clip)" fill="#008000" fill-rule="evenodd" points="270.5,405.5 320.5,405.5000000000001 320.5000000000001,355.5000000000001 270.5000000000001,355.5 270.5,405.5" stroke-width="0" /><text clip-path="url(#border_clip)" fill="black" style="font-family: Arial; font-size: 24.75; font-style: normal;" text-anchor="middle" x="294.5" y="388.75">B2</text><polygon clip-path="url(#border_clip)" fill="#008000" fill-rule="evenodd" points="270.5,335.5 320.5,335.5000000000001 320.5000000000001,285.5000000000001 270.5000000000001,285.5 270.5,335.5" stroke-width="0" /><text clip-path="url(#border_clip)" fill="black" style="font-family: Arial; font-size: 24.75; font-style: normal;" text-anchor="middle" x="294.5" y="318.75">C2</text><polygon clip-path="url(#border_clip)" fill="#008000" fill-rule="evenodd" points="270.5,265.5 320.5,265.5000000000001 320.5000000000001,215.5000000000001 270.5000000000001,215.5 270.5,265.5" stroke-width="0" /><text clip-path="url(#border_clip)" fill="black" style="font-family: Arial; font-size: 24.75; font-style: normal;" text-anchor="middle" x="294.5" y="248.75">D2</text><polygon clip-path="url(#border_clip)" fill="#008000" fill-rule="evenodd" points="270.5,195.5 320.5,195.5000000000001 320.5000000000001,145.5000000000001 270.5000000000001,145.49999999999997 270.5,195.49999999999997" stroke-width="0" /><text clip-path="url(#border_clip)" fill="black" style="font-family: Arial; font-size: 24.75; font-style: normal;" text-anchor="middle" x="294.5" y="178.75">E2</text><polygon clip-path="url(#border_clip)" fill="#008000" fill-rule="evenodd" points="270.5,125.5 320.5,125.50000000000014 320.5000000000001,75.50000000000014 270.5000000000001,75.5 270.5,125.5" stroke-width="0" /><text clip-path="url(#border_clip)" fill="black" style="font-family: Arial; font-size: 24.75; font-style: normal;" text-anchor="middle" x="294.5" y="108.75">F2</text><polygon clip-path="url(#border_clip)" fill="#008000" fill-rule="evenodd" points="340.5,475.5 390.5,475.5000000000001 390.50000000000017,425.5000000000001 340.50000000000017,425.5 340.5,475.5" stroke-width="0" /><text clip-path="url(#border_clip)" fill="black" style="font-family: Arial; font-size: 24.75; font-style: normal;" text-anchor="middle" x="364.5" y="458.75">A3</text><polygon clip-path="url(#border_clip)" fill="#008000" fill-rule="evenodd" points="340.5,405.5 390.5,405.50000000000017 390.50000000000017,355.50000000000017 340.50000000000017,355.5 340.5,405.5" stroke-width="0" /><text clip-path="url(#border_clip)" fill="black" style="font-family: Arial; font-size: 24.75; font-style: normal;" text-anchor="middle" x="364.5" y="388.75">B3</text><polygon clip-path="url(#border_clip)" fill="#008000" fill-rule="evenodd" points="340.5,335.5 390.5,335.50000000000017 390.50000000000017,285.50000000000017 340.50000000000017,285.5 340.5,335.5" stroke-width="0" /><text clip-path="url(#border_clip)" fill="black" style="font-family: Arial; font-size: 24.75; font-style: normal;" text-anchor="middle" x="364.5" y="318.75">C3</text><polygon clip-path="url(#border_clip)" fill="#008000" fill-rule="evenodd" points="340.5,265.5 390.5,265.50000000000017 390.50000000000017,215.50000000000017 340.50000000000017,215.5 340.5,265.5" stroke-width="0" /><text clip-path="url(#border_clip)" fill="black" style="font-family: Arial; font-size: 24.75; font-style: normal;" text-anchor="middle" x="364.5" y="248.75">D3</text><polygon clip-path="url(#border_clip)" fill="#008000" fill-rule="evenodd" points="340.5,195.5 390.5,195.5000000000002 390.5000000000002,145.5000000000002 340.5000000000002,145.5 340.5,195.5" stroke-width="0" /><text clip-path="url(#border_clip)" fill="black" style="font-family: Arial; font-size: 24.75; font-style: normal;" text-anchor="middle" x="364.5" y="178.75">E3</text><polygon clip-path="url(#border_clip)" fill="#008000" fill-rule="evenodd" points="340.5,125.5 390.5,125.5000000000002 390.5000000000002,75.5000000000002 340.5000000000002,75.49999999999997 340.5,125.49999999999997" stroke-width="0" /><text clip-path="url(#border_clip)" fill="black" style="font-family: Arial; font-size: 24.75; font-style: normal;" text-anchor="middle" x="364.5" y="108.75">F3</text><polygon clip-path="url(#border_clip)" fill="#008000" fill-rule="evenodd" points="410.5,475.5 460.5,475.5000000000002 460.5000000000002,425.5000000000002 410.5000000000002,425.5 410.5,475.5" stroke-width="0" /><text clip-path="url(#border_clip)" fill="black" style="font-family: Arial; font-size: 24.75; font-style: normal;" text-anchor="middle" x="434.5" y="458.75">A4</text><polygon clip-path="url(#border_clip)" fill="#008000" fill-rule="evenodd" points="410.5,405.5 460.5,405.5000000000002 460.5000000000002,355.5000000000002 410.5000000000002,355.5 410.5,405.5" stroke-width="0" /><text clip-path="url(#border_clip)" fill="black" style="font-family: Arial; font-size: 24.75; font-style: normal;" text-anchor="middle" x="434.5" y="388.75">B4</text><polygon clip-path="url(#border_clip)" fill="#008000" fill-rule="evenodd" points="410.5,335.5 460.5,335.5000000000002 460.5000000000002,285.5000000000002 410.5000000000002,285.5 410.5,335.5" stroke-width="0" /><text clip-path="url(#border_clip)" fill="black" style="font-family: Arial; font-size: 24.75; font-style: normal;" text-anchor="middle" x="434.5" y="318.75">C4</text><polygon clip-path="url(#border_clip)" fill="#008000" fill-rule="evenodd" points="410.5,265.5 460.5,265.5000000000003 460.5000000000003,215.50000000000026 410.5000000000002,215.5 410.5,265.5" stroke-width="0" /><text clip-path="url(#border_clip)" fill="black" style="font-family: Arial; font-size: 24.75; font-style: normal;" text-anchor="middle" x="434.5" y="248.75">D4</text><polygon clip-path="url(#border_clip)" fill="#008000" fill-rule="evenodd" points="410.5,195.5 460.5,195.50000000000028 460.5000000000003,145.50000000000028 410.5000000000003,145.5 410.5,195.5" stroke-width="0" /><text clip-path="url(#border_clip)" fill="black" style="font-family: Arial; font-size: 24.75; font-style: normal;" text-anchor="middle" x="434.5" y="178.75">E4</text><polygon clip-path="url(#border_clip)" fill="#008000" fill-rule="evenodd" points="410.5,125.5 460.5,125.50000000000028 460.5000000000003,75.50000000000028 410.5000000000003,75.5 410.5,125.5" stroke-width="0" /><text clip-path="url(#border_clip)" fill="black" style="font-family: Arial; font-size: 24.75; font-style: normal;" text-anchor="middle" x="434.5" y="108.75">F4</text><polygon clip-path="url(#border_clip)" fill="#008000" fill-rule="evenodd" points="480.5,475.5 530.5,475.5000000000003 530.5000000000003,425.5000000000003 480.5000000000003,425.5 480.5,475.5" stroke-width="0" /><text clip-path="url(#border_clip)" fill="black" style="font-family: Arial; font-size: 24.75; font-style: normal;" text-anchor="middle" x="504.5" y="458.75">A5</text><polygon clip-path="url(#border_clip)" fill="#008000" fill-rule="evenodd" points="480.5,405.5 530.5,405.50000000000034 530.5000000000003,355.50000000000034 480.5000000000003,355.5 480.5,405.5" stroke-width="0" /><text clip-path="url(#border_clip)" fill="black" style="font-family: Arial; font-size: 24.75; font-style: normal;" text-anchor="middle" x="504.5" y="388.75">B5</text><polygon clip-path="url(#border_clip)" fill="#008000" fill-rule="evenodd" points="480.5,335.5 530.5,335.50000000000034 530.5000000000003,285.50000000000034 480.50000000000034,285.5 480.5,335.5" stroke-width="0" /><text clip-path="url(#border_clip)" fill="black" style="font-family: Arial; font-size: 24.75; font-style: normal;" text-anchor="middle" x="504.5" y="318.75">C5</text><polygon clip-path="url(#border_clip)" fill="#008000" fill-rule="evenodd" points="480.5,265.5 530.5,265.50000000000034 530.5000000000003,215.50000000000034 480.50000000000034,215.5 480.5,265.5" stroke-width="0" /><text clip-path="url(#border_clip)" fill="black" style="font-family: Arial; font-size: 24.75; font-style: normal;" text-anchor="middle" x="504.5" y="248.75">D5</text><polygon clip-path="url(#border_clip)" fill="#008000" fill-rule="evenodd" points="480.5,195.5 530.5,195.50000000000034 530.5000000000003,145.50000000000034 480.50000000000034,145.5 480.5,195.5" stroke-width="0" /><text clip-path="url(#border_clip)" fill="black" style="font-family: Arial; font-size: 24.75; font-style: normal;" text-anchor="middle" x="504.5" y="178.75">E5</text><polygon clip-path="url(#border_clip)" fill="#008000" fill-rule="evenodd" points="480.5,125.5 530.5,125.50000000000034 530.5000000000003,75.50000000000034 480.50000000000034,75.49999999999997 480.5,125.49999999999997" stroke-width="0" /><text clip-path="url(#border_clip)" fill="black" style="font-family: Arial; font-size: 24.75; font-style: normal;" text-anchor="middle" x="504.5" y="108.75">F5</text><polygon clip-path="url(#border_clip)" fill="#008000" fill-rule="evenodd" points="550.5,475.5 600.5,475.50000000000034 600.5000000000003,425.50000000000034 550.5000000000003,425.5 550.5,475.5" stroke-width="0" /><text clip-path="url(#border_clip)" fill="black" style="font-family: Arial; font-size: 24.75; font-style: normal;" text-anchor="middle" x="574.5" y="458.75">A6</text><polygon clip-path="url(#border_clip)" fill="#008000" fill-rule="evenodd" points="550.5,405.5 600.5,405.50000000000034 600.5000000000003,355.50000000000034 550.5000000000003,355.5 550.5,405.5" stroke-width="0" /><text clip-path="url(#border_clip)" fill="black" style="font-family: Arial; font-size: 24.75; font-style: normal;" text-anchor="middle" x="574.5" y="388.75">B6</text><polygon clip-path="url(#border_clip)" fill="#008000" fill-rule="evenodd" points="550.5,335.5 600.5,335.5000000000004 600.5000000000005,285.5000000000004 550.5000000000005,285.5 550.5,335.5" stroke-width="0" /><text clip-path="url(#border_clip)" fill="black" style="font-family: Arial; font-size: 24.75; font-style: normal;" text-anchor="middle" x="574.5" y="318.75">C6</text><polygon clip-path="url(#border_clip)" fill="#008000" fill-rule="evenodd" points="550.5,265.5 600.5,265.5000000000004 600.5000000000005,215.5000000000004 550.5000000000005,215.5 550.5,265.5" stroke-width="0" /><text clip-path="url(#border_clip)" fill="black" style="font-family: Arial; font-size: 24.75; font-style: normal;" text-anchor="middle" x="574.5" y="248.75">D6</text><polygon clip-path="url(#border_clip)" fill="#008000" fill-rule="evenodd" points="550.5,195.5 600.5,195.5000000000004 600.5000000000005,145.5000000000004 550.5000000000005,145.49999999999997 550.5,195.49999999999997" stroke-width="0" /><text clip-path="url(#border_clip)" fill="black" style="font-family: Arial; font-size: 24.75; font-style: normal;" text-anchor="middle" x="574.5" y="178.75">E6</text><polygon clip-path="url(#border_clip)" fill="#008000" fill-rule="evenodd" points="550.5,125.5 600.5,125.50000000000043 600.5000000000005,75.50000000000043 550.5000000000005,75.5 550.5,125.5" stroke-width="0" /><text clip-path="url(#border_clip)" fill="black" style="font-family: Arial; font-size: 24.75; font-style: normal;" text-anchor="middle" x="574.5" y="108.75">F6</text><polygon clip-path="url(#border_clip)" fill="#008000" fill-rule="evenodd" points="620.5,475.5 670.5,475.50000000000045 670.5000000000005,425.50000000000045 620.5000000000005,425.5 620.5,475.5" stroke-width="0" /><text clip-path="url(#border_clip)" fill="black" style="font-family: Arial; font-size: 24.75; font-style: normal;" text-anchor="middle" x="644.5" y="458.75">A7</text><polygon clip-path="url(#border_clip)" fill="#008000" fill-rule="evenodd" points="620.5,405.5 670.5,405.50000000000045 670.5000000000005,355.50000000000045 620.5000000000005,355.5 620.5,405.5" stroke-width="0" /><text clip-path="url(#border_clip)" fill="black" style="font-family: Arial; font-size: 24.75; font-style: normal;" text-anchor="middle" x="644.5" y="388.75">B7</text><polygon clip-path="url(#border_clip)" fill="#008000" fill-rule="evenodd" points="620.5,335.5 670.5,335.50000000000045 670.5000000000005,285.50000000000045 620.5000000000005,285.5 620.5,335.5" stroke-width="0" /><text clip-path="url(#border_clip)" fill="black" style="font-family: Arial; font-size: 24.75; font-style: normal;" text-anchor="middle" x="644.5" y="318.75">C7</text><polygon clip-path="url(#border_clip)" fill="#008000" fill-rule="evenodd" points="620.5,265.5 670.5,265.50000000000045 670.5000000000005,215.50000000000048 620.5000000000005,215.5 620.5,265.5" stroke-width="0" /><text clip-path="url(#border_clip)" fill="black" style="font-family: Arial; font-size: 24.75; font-style: normal;" text-anchor="middle" x="644.5" y="248.75">D7</text><polygon clip-path="url(#border_clip)" fill="#008000" fill-rule="evenodd" points="620.5,195.5 670.5,195.50000000000048 670.5000000000005,145.50000000000048 620.5000000000005,145.5 620.5,195.5" stroke-width="0" /><text clip-path="url(#border_clip)" fill="black" style="font-family: Arial; font-size: 24.75; font-style: normal;" text-anchor="middle" x="644.5" y="178.75">E7</text><polygon clip-path="url(#border_clip)" fill="#008000" fill-rule="evenodd" points="620.5,125.5 670.5,125.50000000000051 670.5000000000005,75.50000000000051 620.5000000000005,75.5 620.5,125.5" stroke-width="0" /><text clip-path="url(#border_clip)" fill="black" style="font-family: Arial; font-size: 24.75; font-style: normal;" text-anchor="middle" x="644.5" y="108.75">F7</text><polygon clip-path="url(#border_clip)" fill="#008000" fill-rule="evenodd" points="690.5,475.5 740.5,475.5000000000005 740.5000000000005,425.5000000000005 690.5000000000005,425.5 690.5,475.5" stroke-width="0" /><text clip-path="url(#border_clip)" fill="black" style="font-family: Arial; font-size: 24.75; font-style: normal;" text-anchor="middle" x="714.5" y="458.75">A8</text><polygon clip-path="url(#border_clip)" fill="#008000" fill-rule="evenodd" points="690.5,405.5 740.5,405.50000000000057 740.5000000000006,355.50000000000057 690.5000000000006,355.5 690.5,405.5" stroke-width="0" /><text clip-path="url(#border_clip)" fill="black" style="font-family: Arial; font-size: 24.75; font-style: normal;" text-anchor="middle" x="714.5" y="388.75">B8</text><polygon clip-path="url(#border_clip)" fill="#008000" fill-rule="evenodd" points="690.5,335.5 740.5,335.50000000000057 740.5000000000006,285.50000000000057 690.5000000000006,285.5 690.5,335.5" stroke-width="0" /><text clip-path="url(#border_clip)" fill="black" style="font-family: Arial; font-size: 24.75; font-style: normal;" text-anchor="middle" x="714.5" y="318.75">C8</text><polygon clip-path="url(#border_clip)" fill="#008000" fill-rule="evenodd" points="690.5,265.5 740.5,265.50000000000057 740.5000000000006,215.50000000000057 690.5000000000006,215.5 690.5,265.5" stroke-width="0" /><text clip-path="url(#border_clip)" fill="black" style="font-family: Arial; font-size: 24.75; font-style: normal;" text-anchor="middle" x="714.5" y="248.75">D8</text><polygon clip-path="url(#border_clip)" fill="#008000" fill-rule="evenodd" points="690.5,195.5 740.5,195.50000000000057 740.5000000000006,145.50000000000057 690.5000000000006,145.5 690.5,195.5" stroke-width="0" /><text clip-path="url(#border_clip)" fill="black" style="font-family: Arial; font-size: 24.75; font-style: normal;" text-anchor="middle" x="714.5" y="178.75">E8</text><polygon clip-path="url(#border_clip)" fill="#008000" fill-rule="evenodd" points="690.5,125.5 740.5,125.50000000000057 740.5000000000006,75.50000000000057 690.5000000000006,75.5 690.5,125.5" stroke-width="0" /><text clip-path="url(#border_clip)" fill="black" style="font-family: Arial; font-size: 24.75; font-style: normal;" text-anchor="middle" x="714.5" y="108.75">F8</text><polygon clip-path="url(#border_clip)" fill="black" fill-rule="evenodd" points="715.5,115.5 180.5,565.5 780.5,565.500000000007 780.5000000000006,515.500000000007 180.50000000000057,515.4999999999999 180.49999999999994,565.4999999999999" stroke-width="0" /><text clip-path="url(#border_clip)" fill="#ffffff" style="font-family: Arial; font-size: 24.75; font-style: normal;" text-anchor="middle" x="487.5" y="543.75">SCREEN</text><polyline clip-path="url(#border_clip)" fill="none" points="200.5,475.5 250.5,475.5 250.5,425.5 200.5,425.5 200.5,475.5" stroke="black" stroke-linecap="round" stroke-width="1" /><polyline clip-path="url(#border_clip)" fill="none" points="200.5,405.5 250.5,405.5 250.50000000000003,355.5 200.5,355.5 200.5,405.5" stroke="black" stroke-linecap="round" stroke-width="1" /><polyline clip-path="url(#border_clip)" fill="none" points="200.5,335.5 250.5,335.5 250.50000000000003,285.5 200.5,285.5 200.49999999999994,335.5" stroke="black" stroke-linecap="round" stroke-width="1" /><polyline clip-path="url(#border_clip)" fill="none" points="200.5,265.5 250.5,265.50000000000006 250.50000000000003,215.50000000000003 200.5,215.5 200.49999999999994,265.5" stroke="black" stroke-linecap="round" stroke-width="1" /><polyline clip-path="url(#border_clip)" fill="none" points="200.5,195.5 250.5,195.50000000000006 250.50000000000006,145.50000000000006 200.50000000000006,145.5 200.5,195.5" stroke="black" stroke-linecap="round" stroke-width="1" /><polyline clip-path="url(#border_clip)" fill="none" points="200.5,125.5 250.5,125.50000000000006 250.50000000000006,75.50000000000006 200.50000000000006,75.5 200.5,125.5" stroke="black" stroke-linecap="round" stroke-width="1" /><polyline clip-path="url(#border_clip)" fill="none" points="270.5,475.5 320.5,475.5000000000001 320.5000000000001,425.5000000000001 270.5000000000001,425.5 270.5,475.5" stroke="black" stroke-linecap="round" stroke-width="1" /><polyline clip-path="url(#border_clip)" fill="none" points="270.5,405.5 320.5,405.5000000000001 320.5000000000001,355.5000000000001 270.5000000000001,355.5 270.5,405.5" stroke="black" stroke-linecap="round" stroke-width="1" /><polyline clip-path="url(#border_clip)" fill="none" points="270.5,335.5 320.5,335.5000000000001 320.5000000000001,285.5000000000001 270.5000000000001,285.5 270.5,335.5" stroke="black" stroke-linecap="round" stroke-width="1" /><polyline clip-path="url(#border_clip)" fill="none" points="270.5,265.5 320.5,265.5000000000001 320.5000000000001,215.5000000000001 270.5000000000001,215.5 270.5,265.5" stroke="black" stroke-linecap="round" stroke-width="1" /><polyline clip-path="url(#border_clip)" fill="none" points="270.5,195.5 320.5,195.5000000000001 320.5000000000001,145.5000000000001 270.5000000000001,145.49999999999997 270.5,195.49999999999997" stroke="black" stroke-linecap="round" stroke-width="1" /><polyline clip-path="url(#border_clip)" fill="none" points="270.5,125.5 320.5,125.50000000000014 320.5000000000001,75.50000000000014 270.5000000000001,75.5 270.5,125.5" stroke="black" stroke-linecap="round" stroke-width="1" /><polyline clip-path="url(#border_clip)" fill="none" points="340.5,475.5 390.5,475.5000000000001 390.50000000000017,425.5000000000001 340.50000000000017,425.5 340.5,475.5" stroke="black" stroke-linecap="round" stroke-width="1" /><polyline clip-path="url(#border_clip)" fill="none" points="340.5,405.5 390.5,405.50000000000017 390.50000000000017,355.50000000000017 340.50000000000017,355.5 340.5,405.5" stroke="black" stroke-linecap="round" stroke-width="1" /><polyline clip-path="url(#border_clip)" fill="none" points="340.5,335.5 390.5,335.50000000000017 390.50000000000017,285.50000000000017 340.50000000000017,285.5 340.5,335.5" stroke="black" stroke-linecap="round" stroke-width="1" /><polyline clip-path="url(#border_clip)" fill="none" points="340.5,265.5 390.5,265.50000000000017 390.50000000000017,215.50000000000017 340.50000000000017,215.5 340.5,265.5" stroke="black" stroke-linecap="round" stroke-width="1" /><polyline clip-path="url(#border_clip)" fill="none" points="340.5,195.5 390.5,195.5000000000002 390.5000000000002,145.5000000000002 340.5000000000002,145.5 340.5,195.5" stroke="black" stroke-linecap="round" stroke-width="1" /><polyline clip-path="url(#border_clip)" fill="none" points="340.5,125.5 390.5,125.5000000000002 390.5000000000002,75.5000000000002 340.5000000000002,75.49999999999997 340.5,125.49999999999997" stroke="black" stroke-linecap="round" stroke-width="1" /><polyline clip-path="url(#border_clip)" fill="none" points="410.5,475.5 460.5,475.5000000000002 460.5000000000002,425.5000000000002 410.5000000000002,425.5 410.5,475.5" stroke="black" stroke-linecap="round" stroke-width="1" /><polyline clip-path="url(#border_clip)" fill="none" points="410.5,405.5 460.5,405.5000000000002 460.5000000000002,355.5000000000002 410.5000000000002,355.5 410.5,405.5" stroke="black" stroke-linecap="round" stroke-width="1" /><polyline clip-path="url(#border_clip)" fill="none" points="410.5,335.5 460.5,335.5000000000002 460.5000000000002,285.5000000000002 410.5000000000002,285.5 410.5,335.5" stroke="black" stroke-linecap="round" stroke-width="1" /><polyline clip-path="url(#border_clip)" fill="none" points="410.5,265.5 460.5,265.5000000000003 460.5000000000003,215.50000000000026 410.5000000000002,215.5 410.5,265.5" stroke="black" stroke-linecap="round" stroke-width="1" /><polyline clip-path="url(#border_clip)" fill="none" points="410.5,195.5 460.5,195.50000000000028 460.5000000000003,145.50000000000028 410.5000000000003,145.5 410.5,195.5" stroke="black" stroke-linecap="round" stroke-width="1" /><polyline clip-path="url(#border_clip)" fill="none" points="410.5,125.5 460.5,125.50000000000028 460.5000000000003,75.50000000000028 410.5000000000003,75.5 410.5,125.5" stroke="black" stroke-linecap="round" stroke-width="1" /><polyline clip-path="url(#border_clip)" fill="none" points="480.5,475.5 530.5,475.5000000000003 530.5000000000003,425.5000000000003 480.5000000000003,425.5 480.5,475.5" stroke="black" stroke-linecap="round" stroke-width="1" /><polyline clip-path="url(#border_clip)" fill="none" points="480.5,405.5 530.5,405.50000000000034 530.5000000000003,355.50000000000034 480.5000000000003,355.5 480.5,405.5" stroke="black" stroke-linecap="round" stroke-width="1" /><polyline clip-path="url(#border_clip)" fill="none" points="480.5,335.5 530.5,335.50000000000034 530.5000000000003,285.50000000000034 480.50000000000034,285.5 480.5,335.5" stroke="black" stroke-linecap="round" stroke-width="1" /><polyline clip-path="url(#border_clip)" fill="none" points="480.5,265.5 530.5,265.50000000000034 530.5000000000003,215.50000000000034 480.50000000000034,215.5 480.5,265.5" stroke="black" stroke-linecap="round" stroke-width="1" /><polyline clip-path="url(#border_clip)" fill="none" points="480.5,195.5 530.5,195.50000000000034 530.5000000000003,145.50000000000034 480.50000000000034,145.5 480.5,195.5" stroke="black" stroke-linecap="round" stroke-width="1" /><polyline clip-path="url(#border_clip)" fill="none" points="480.5,125.5 530.5,125.50000000000034 530.5000000000003,75.50000000000034 480.50000000000034,75.49999999999997 480.5,125.49999999999997" stroke="black" stroke-linecap="round" stroke-width="1" /><polyline clip-path="url(#border_clip)" fill="none" points="550.5,475.5 600.5,475.50000000000034 600.5000000000003,425.50000000000034 550.5000000000003,425.5 550.5,475.5" stroke="black" stroke-linecap="round" stroke-width="1" /><polyline clip-path="url(#border_clip)" fill="none" points="550.5,405.5 600.5,405.50000000000034 600.5000000000003,355.50000000000034 550.5000000000003,355.5 550.5,405.5" stroke="black" stroke-linecap="round" stroke-width="1" /><polyline clip-path="url(#border_clip)" fill="none" points="550.5,335.5 600.5,335.5000000000004 600.5000000000005,285.5000000000004 550.5000000000005,285.5 550.5,335.5" stroke="black" stroke-linecap="round" stroke-width="1" /><polyline clip-path="url(#border_clip)" fill="none" points="550.5,265.5 600.5,265.5000000000004 600.5000000000005,215.5000000000004 550.5000000000005,215.5 550.5,265.5" stroke="black" stroke-linecap="round" stroke-width="1" /><polyline clip-path="url(#border_clip)" fill="none" points="550.5,195.5 600.5,195.5000000000004 600.5000000000005,145.5000000000004 550.5000000000005,145.49999999999997 550.5,195.49999999999997" stroke="black" stroke-linecap="round" stroke-width="1" /><polyline clip-path="url(#border_clip)" fill="none" points="550.5,125.5 600.5,125.50000000000043 600.5000000000005,75.50000000000043 550.5000000000005,75.5 550.5,125.5" stroke="black" stroke-linecap="round" stroke-width="1" /><polyline clip-path="url(#border_clip)" fill="none" points="620.5,475.5 670.5,475.50000000000045 670.5000000000005,425.50000000000045 620.5000000000005,425.5 620.5,475.5" stroke="black" stroke-linecap="round" stroke-width="1" /><polyline clip-path="url(#border_clip)" fill="none" points="620.5,405.5 670.5,405.50000000000045 670.5000000000005,355.50000000000045 620.5000000000005,355.5 620.5,405.5" stroke="black" stroke-linecap="round" stroke-width="1" /><polyline clip-path="url(#border_clip)" fill="none" points="620.5,335.5 670.5,335.50000000000045 670.5000000000005,285.50000000000045 620.5000000000005,285.5 620.5,335.5" stroke="black" stroke-linecap="round" stroke-width="1" /><polyline clip-path="url(#border_clip)" fill="none" points="620.5,265.5 670.5,265.50000000000045 670.5000000000005,215.50000000000048 620.5000000000005,215.5 620.5,265.5" stroke="black" stroke-linecap="round" stroke-width="1" /><polyline clip-path="url(#border_clip)" fill="none" points="620.5,195.5 670.5,195.50000000000048 670.5000000000005,145.50000000000048 620.5000000000005,145.5 620.5,195.5" stroke="black" stroke-linecap="round" stroke-width="1" /><polyline clip-path="url(#border_clip)" fill="none" points="620.5,125.5 670.5,125.50000000000051 670.5000000000005,75.50000000000051 620.5000000000005,75.5 620.5,125.5" stroke="black" stroke-linecap="round" stroke-width="1" /><polyline clip-path="url(#border_clip)" fill="none" points="690.5,475.5 740.5,475.5000000000005 740.5000000000005,425.5000000000005 690.5000000000005,425.5 690.5,475.5" stroke="black" stroke-linecap="round" stroke-width="1" /><polyline clip-path="url(#border_clip)" fill="none" points="690.5,405.5 740.5,405.50000000000057 740.5000000000006,355.50000000000057 690.5000000000006,355.5 690.5,405.5" stroke="black" stroke-linecap="round" stroke-width="1" /><polyline clip-path="url(#border_clip)" fill="none" points="690.5,335.5 740.5,335.50000000000057 740.5000000000006,285.50000000000057 690.5000000000006,285.5 690.5,335.5" stroke="black" stroke-linecap="round" stroke-width="1" /><polyline clip-path="url(#border_clip)" fill="none" points="690.5,265.5 740.5,265.50000000000057 740.5000000000006,215.50000000000057 690.5000000000006,215.5 690.5,265.5" stroke="black" stroke-linecap="round" stroke-width="1" /><polyline clip-path="url(#border_clip)" fill="none" points="690.5,195.5 740.5,195.50000000000057 740.5000000000006,145.50000000000057 690.5000000000006,145.5 690.5,195.5" stroke="black" stroke-linecap="round" stroke-width="1" /><polyline clip-path="url(#border_clip)" fill="none" points="690.5,125.5 740.5,125.50000000000057 740.5000000000006,75.50000000000057 690.5000000000006,75.5 690.5,125.5" stroke="black" stroke-linecap="round" stroke-width="1" /></svg>