<?xml version="1.0" encoding="utf-8" ?>
<svg baseProfile="full" height="1500px" version="1.1" width="1500px" xmlns="http://www.w3.org/2000/svg" xmlns:ev="http://www.w3.org/2001/xml-events" xmlns:xlink="http://www.w3.org/1999/xlink"><defs /><polyline clip-path="url(#border_clip)" fill="none" points="750.5,750.5 750.5,750.5" stroke="black" stroke-linecap="round" stroke-width="1" /><polygon clip-path="url(#border_clip)" fill="#008000" fill-rule="evenodd" points="750.5,750.5 800.5,750.5 800.5,700.5 750.5,700.5 750.5,750.5" stroke-width="0" /><polyline clip-path="url(#border_clip)" fill="none" points="750.5,750.5 800.5,750.5 800.5,700.5 750.5,700.5 750.5,750.5" stroke="black" stroke-linecap="round" stroke-width="1" /><text clip-path="url(#border_clip)" fill="black" style="font-family: Arial; font-size: 24.75; font-style: normal;" text-anchor="middle" x="774.5" y="733.75">A1</text><polygon clip-path="url(#border_clip)" fill="#008000" fill-rule="evenodd" points="750.5,680.5 800.5,680.5 800.5,630.5 750.5,630.5 750.5,680.5" stroke-width="0" /><text clip-path="url(#border_clip)" fill="black" style="font-family: Arial; font-size: 24.75; font-style: normal;" text-anchor="middle" x="774.5" y="663.75">B1</text><polygon clip-path="url(#border_clip)" fill="#008000" fill-rule="evenodd" points="750.5,610.5 800.5,610.5 800.5,560.5 750.5,560.5 750.5,610.5" stroke-width="0" /><text clip-path="url(#border_clip)" fill="black" style="font-family: Arial; font-size: 24.75; font-style: normal;" text-anchor="middle" x="774.5" y="593.75">C1</text><polygon clip-path="url(#border_clip)" fill="#008000" fill-rule="evenodd" points="750.5,540.5 800.5,540.5 800.5,490.5 750.5,490.49999999999994 750.5,540.5" stroke-width="0" /><text clip-path="url(#border_clip)" fill="black" style="font-family: Arial; font-size: 24.75; font-style: normal;" text-anchor="middle" x="774.5" y="523.75">D1</text><polygon clip-path="url(#border_clip)" fill="#008000" fill-rule="evenodd" points="750.5,470.5 800.5,470.50000000000006 800.5,420.50000000000006 750.5,420.5 750.5,470.5" stroke-width="0" /><text clip-path="url(#border_clip)" fill="black" style="font-family: Arial; font-size: 24.75; font-style: normal;" text-anchor="middle" x="774.5" y="453.75">E1</text><polygon clip-path="url(#border_clip)" fill="#008000" fill-rule="evenodd" points="820.5,750.5 870.5,750.5000000000001 870.5000000000001,700.5000000000001 820.5000000000001,700.5 820.5,750.5" stroke-width="0" /><text clip-path="url(#border_clip)" fill="black" style="font-family: Arial; font-size: 24.75; font-style: normal;" text-anchor="middle" x="844.5" y="733.75">A2</text><polygon clip-path="url(#border_clip)" fill="#008000" fill-rule="evenodd" points="820.5,680.5 870.5,680.5000000000001 870.5000000000001,630.5000000000001 820.5000000000001,630.5 820.5,680.5" stroke-width="0" /><text clip-path="url(#border_clip)" fill="black" style="font-family: Arial; font-size: 24.75; font-style: normal;" text-anchor="middle" x="844.5" y="663.75">B2</text><polygon clip-path="url(#border_clip)" fill="#008000" fill-rule="evenodd" points="820.5,610.5 870.5,610.5000000000001 870.5000000000001,560.5000000000001 820.5000000000001,560.5 820.5,610.5" stroke-width="0" /><text clip-path="url(#border_clip)" fill="black" style="font-family: Arial; font-size: 24.75; font-style: normal;" text-anchor="middle" x="844.5" y="593.75">C2</text><polygon clip-path="url(#border_clip)" fill="#008000" fill-rule="evenodd" points="820.5,540.5 870.5,540.5000000000001 870.5000000000001,490.5000000000001 820.5000000000001,490.5 820.5,540.5" stroke-width="0" /><text clip-path="url(#border_clip)" fill="black" style="font-family: Arial; font-size: 24.75; font-style: normal;" text-anchor="middle" x="844.5" y="523.75">D2</text><polygon clip-path="url(#border_clip)" fill="#008000" fill-rule="evenodd" points="820.5,470.5 870.5,470.5000000000001 870.5000000000001,420.5000000000001 820.5000000000001,420.5 820.5,470.5" stroke-width="0" /><text clip-path="url(#border_clip)" fill="black" style="font-family: Arial; font-size: 24.75; font-style: normal;" text-anchor="middle" x="844.5" y="453.75">E2</text><polygon clip-path="url(#border_clip)" fill="#008000" fill-rule="evenodd" points="890.5,750.5 940.5,750.5000000000001 940.5000000000001,700.5000000000001 890.5000000000001,700.5 890.5,750.5" stroke-width="0" /><text clip-path="url(#border_clip)" fill="black" style="font-family: Arial; font-size: 24.75; font-style: normal;" text-anchor="middle" x="914.5" y="733.75">A3</text><polygon clip-path="url(#border_clip)" fill="#008000" fill-rule="evenodd" points="890.5,680.5 940.5,680.5000000000001 940.5000000000001,630.5000000000001 890.5000000000001,630.5 890.5,680.5" stroke-width="0" /><text clip-path="url(#border_clip)" fill="black" style="font-family: Arial; font-size: 24.75; font-style: normal;" text-anchor="middle" x="914.5" y="663.75">B3</text><polygon clip-path="url(#border_clip)" fill="#008000" fill-rule="evenodd" points="890.5,610.5 940.5,610.5000000000001 940.5000000000001,560.5000000000001 890.5000000000001,560.5 890.5,610.5" stroke-width="0" /><text clip-path="url(#border_clip)" fill="black" style="font-family: Arial; font-size: 24.75; font-style: normal;" text-anchor="middle" x="914.5" y="593.75">C3</text><polygon clip-path="url(#border_clip)" fill="#008000" fill-rule="evenodd" points="890.5,540.5 940.5,540.5000000000002 940.5000000000002,490.50000000000017 890.5000000000002,490.5 890.5,540.5" stroke-width="0" /><text clip-path="url(#border_clip)" fill="black" style="font-family: Arial; font-size: 24.75; font-style: normal;" text-anchor="middle" x="914.5" y="523.75">D3</text><polygon clip-path="url(#border_clip)" fill="#008000" fill-rule="evenodd" points="890.5,470.5 940.5,470.50000000000017 940.5000000000002,420.50000000000017 890.5000000000002,420.5 890.5,470.5" stroke-width="0" /><text clip-path="url(#border_clip)" fill="black" style="font-family: Arial; font-size: 24.75; font-style: normal;" text-anchor="middle" x="914.5" y="453.75">E3</text><polygon clip-path="url(#border_clip)" fill="#008000" fill-rule="evenodd" points="960.5,750.5 1010.5,750.5000000000002 1010.5000000000002,700.5000000000002 960.5000000000002,700.5 960.5,750.5" stroke-width="0" /><text clip-path="url(#border_clip)" fill="black" style="font-family: Arial; font-size: 24.75; font-style: normal;" text-anchor="middle" x="984.5" y="733.75">A4</text><polygon clip-path="url(#border_clip)" fill="#008000" fill-rule="evenodd" points="960.5,680.5 1010.5,680.5000000000002 1010.5000000000002,630.5000000000002 960.5000000000002,630.5 960.5,680.5" stroke-width="0" /><text clip-path="url(#border_clip)" fill="black" style="font-family: Arial; font-size: 24.75; font-style: normal;" text-anchor="middle" x="984.5" y="663.75">B4</text><polygon clip-path="url(#border_clip)" fill="#008000" fill-rule="evenodd" points="960.5,610.5 1010.5,610.5000000000002 1010.5000000000002,560.5000000000002 960.5000000000002,560.5 960.5,610.5" stroke-width="0" /><text clip-path="url(#border_clip)" fill="black" style="font-family: Arial; font-size: 24.75; font-style: normal;" text-anchor="middle" x="984.5" y="593.75">C4</text><polygon clip-path="url(#border_clip)" fill="#008000" fill-rule="evenodd" points="960.5,540.5 1010.5,540.5000000000002 1010.5000000000002,490.5000000000002 960.5000000000002,490.5 960.5,540.5" stroke-width="0" /><text clip-path="url(#border_clip)" fill="black" style="font-family: Arial; font-size: 24.75; font-style: normal;" text-anchor="middle" x="984.5" y="523.75">D4</text><polygon clip-path="url(#border_clip)" fill="#008000" fill-rule="evenodd" points="960.5,470.5 1010.5,470.5000000000002 1010.5000000000002,420.5000000000002 960.5000000000002,420.5 960.5,470.5" stroke-width="0" /><text clip-path="url(#border_clip)" fill="black" style="font-family: Arial; font-size: 24.75; font-style: normal;" text-anchor="middle" x="984.5" y="453.75">E4</text><polygon clip-path="url(#border_clip)" fill="#008000" fill-rule="evenodd" points="1030.5,750.5 1080.5,750.5000000000002 1080.5000000000002,700.5000000000002 1030.5000000000002,700.5 1030.5,750.5" stroke-width="0" /><text clip-path="url(#border_clip)" fill="black" style="font-family: Arial; font-size: 24.75; font-style: normal;" text-anchor="middle" x="1054.5" y="733.75">A5</text><polygon clip-path="url(#border_clip)" fill="#008000" fill-rule="evenodd" points="1030.5,680.5 1080.5,680.5000000000002 1080.5000000000002,630.5000000000002 1030.5000000000002,630.5 1030.5,680.5" stroke-width="0" /><text clip-path="url(#border_clip)" fill="black" style="font-family: Arial; font-size: 24.75; font-style: normal;" text-anchor="middle" x="1054.5" y="663.75">B5</text><polygon clip-path="url(#border_clip)" fill="#008000" fill-rule="evenodd" points="1030.5,610.5 1080.5,610.5000000000002 1080.5000000000002,560.5000000000002 1030.5000000000002,560.5 1030.5,610.5" stroke-width="0" /><text clip-path="url(#border_clip)" fill="black" style="font-family: Arial; font-size: 24.75; font-style: normal;" text-anchor="middle" x="1054.5" y="593.75">C5</text><polygon clip-path="url(#border_clip)" fill="#008000" fill-rule="evenodd" points="1030.5,540.5 1080.5,540.5000000000002 1080.5000000000002,490.5000000000003 1030.5000000000002,490.5 1030.5,540.5" stroke-width="0" /><text clip-path="url(#border_clip)" fill="black" style="font-family: Arial; font-size: 24.75; font-style: normal;" text-anchor="middle" x="1054.5" y="523.75">D5</text><polygon clip-path="url(#border_clip)" fill="#008000" fill-rule="evenodd" points="1030.5,470.5 1080.5,470.5000000000003 1080.5000000000002,420.5000000000003 1030.5000000000002,420.5 1030.5,470.5" stroke-width="0" /><text clip-path="url(#border_clip)" fill="black" style="font-family: Arial; font-size: 24.75; font-style: normal;" text-anchor="middle" x="1054.5" y="453.75">E5</text><polygon clip-path="url(#border_clip)" fill="#008000" fill-rule="evenodd" points="1100.5,750.5 1150.5,750.5000000000003 1150.5000000000002,700.5000000000003 1100.5000000000002,700.5 1100.5,750.5" stroke-width="0" /><text clip-path="url(#border_clip)" fill="black" style="font-family: Arial; font-size: 24.75; font-style: normal;" text-anchor="middle" x="1124.5" y="733.75">A6</text><polygon clip-path="url(#border_clip)" fill="#008000" fill-rule="evenodd" points="1100.5,680.5 1150.5,680.5000000000003 1150.5000000000005,630.5000000000003 1100.5000000000005,630.5 1100.5,680.5" stroke-width="0" /><text clip-path="url(#border_clip)" fill="black" style="font-family: Arial; font-size: 24.75; font-style: normal;" text-anchor="middle" x="1124.5" y="663.75">B6</text><polygon clip-path="url(#border_clip)" fill="#008000" fill-rule="evenodd" points="1100.5,610.5 1150.5,610.5000000000003 1150.5000000000005,560.5000000000003 1100.5000000000005,560.5 1100.5,610.5" stroke-width="0" /><text clip-path="url(#border_clip)" fill="black" style="font-family: Arial; font-size: 24.75; font-style: normal;" text-anchor="middle" x="1124.5" y="593.75">C6</text><polygon clip-path="url(#border_clip)" fill="#008000" fill-rule="evenodd" points="1100.5,540.5 1150.5,540.5000000000003 1150.5000000000005,490.50000000000034 1100.5000000000005,490.5 1100.5,540.5" stroke-width="0" /><text clip-path="url(#border_clip)" fill="black" style="font-family: Arial; font-size: 24.75; font-style: normal;" text-anchor="middle" x="1124.5" y="523.75">D6</text><polygon clip-path="url(#border_clip)" fill="#008000" fill-rule="evenodd" points="1100.5,470.5 1150.5,470.50000000000034 1150.5000000000005,420.50000000000034 1100.5000000000005,420.5 1100.5,470.5" stroke-width="0" /><text clip-path="url(#border_clip)" fill="black" style="font-family: Arial; font-size: 24.75; font-style: normal;" text-anchor="middle" x="1124.5" y="453.75">E6</text><polygon clip-path="url(#border_clip)" fill="black" fill-rule="evenodd" points="1125.5,460.5 730.5,840.5 1180.5,840.5000000000033 1180.5000000000005,790.5000000000033 730.5000000000005,790.5 730.5,840.5" stroke-width="0" /><text clip-path="url(#border_clip)" fill="#ffffff" style="font-family: Arial; font-size: 24.75; font-style: normal;" text-anchor="middle" x="965.5" y="818.75">SCREEN</text><polyline clip-path="url(#border_clip)" fill="none" points="750.5,680.5 800.5,680.5 800.5,630.5 750.5,630.5 750.5,680.5" stroke="black" stroke-linecap="round" stroke-width="1" /><polyline clip-path="url(#border_clip)" fill="none" points="750.5,610.5 800.5,610.5 800.5,560.5 750.5,560.5 750.5,610.5" stroke="black" stroke-linecap="round" stroke-width="1" /><polyline clip-path="url(#border_clip)" fill="none" points="750.5,540.5 800.5,540.5 800.5,490.5 750.5,490.49999999999994 750.5,540.5" stroke="black" stroke-linecap="round" stroke-width="1" /><polyline clip-path="url(#border_clip)" fill="none" points="750.5,470.5 800.5,470.50000000000006 800.5,420.50000000000006 750.5,420.5 750.5,470.5" stroke="black" stroke-linecap="round" stroke-width="1" /><polyline clip-path="url(#border_clip)" fill="none" points="820.5,750.5 870.5,750.5000000000001 870.5000000000001,700.5000000000001 820.5000000000001,700.5 820.5,750.5" stroke="black" stroke-linecap="round" stroke-width="1" /><polyline clip-path="url(#border_clip)" fill="none" points="820.5,680.5 870.5,680.5000000000001 870.5000000000001,630.5000000000001 820.5000000000001,630.5 820.5,680.5" stroke="black" stroke-linecap="round" stroke-width="1" /><polyline clip-path="url(#border_clip)" fill="none" points="820.5,610.5 870.5,610.5000000000001 870.5000000000001,560.5000000000001 820.5000000000001,560.5 820.5,610.5" stroke="black" stroke-linecap="round" stroke-width="1" /><polyline clip-path="url(#border_clip)" fill="none" points="820.5,540.5 870.5,540.5000000000001 870.5000000000001,490.5000000000001 820.5000000000001,490.5 820.5,540.5" stroke="black" stroke-linecap="round" stroke-width="1" /><polyline clip-path="url(#border_clip)" fill="none" points="820.5,470.5 870.5,470.5000000000001 870.5000000000001,420.5000000000001 820.5000000000001,420.5 820.5,470.5" stroke="black" stroke-linecap="round" stroke-width="1" /><polyline clip-path="url(#border_clip)" fill="none" points="890.5,750.5 940.5,750.5000000000001 940.5000000000001,700.5000000000001 890.5000000000001,700.5 890.5,750.5" stroke="black" stroke-linecap="round" stroke-width="1" /><polyline clip-path="url(#border_clip)" fill="none" points="890.5,680.5 940.5,680.5000000000001 940.5000000000001,630.5000000000001 890.5000000000001,630.5 890.5,680.5" stroke="black" stroke-linecap="round" stroke-width="1" /><polyline clip-path="url(#border_clip)" fill="none" points="890.5,610.5 940.5,610.5000000000001 940.5000000000001,560.5000000000001 890.5000000000001,560.5 890.5,610.5" stroke="black" stroke-linecap="round" stroke-width="1" /><polyline clip-path="url(#border_clip)" fill="none" points="890.5,540.5 940.5,540.5000000000002 940.5000000000002,490.50000000000017 890.5000000000002,490.5 890.5,540.5" stroke="black" stroke-linecap="round" stroke-width="1" /><polyline clip-path="url(#border_clip)" fill="none" points="890.5,470.5 940.5,470.50000000000017 940.5000000000002,420.50000000000017 890.5000000000002,420.5 890.5,470.5" stroke="black" stroke-linecap="round" stroke-width="1" /><polyline clip-path="url(#border_clip)" fill="none" points="960.5,750.5 1010.5,750.5000000000002 1010.5000000000002,700.5000000000002 960.5000000000002,700.5 960.5,750.5" stroke="black" stroke-linecap="round" stroke-width="1" /><polyline clip-path="url(#border_clip)" fill="none" points="960.5,680.5 1010.5,680.5000000000002 1010.5000000000002,630.5000000000002 960.5000000000002,630.5 960.5,680.5" stroke="black" stroke-linecap="round" stroke-width="1" /><polyline clip-path="url(#border_clip)" fill="none" points="960.5,610.5 1010.5,610.5000000000002 1010.5000000000002,560.5000000000002 960.5000000000002,560.5 960.5,610.5" stroke="black" stroke-linecap="round" stroke-width="1" /><polyline clip-path="url(#border_clip)" fill="none" points="960.5,540.5 1010.5,540.5000000000002 1010.5000000000002,490.5000000000002 960.5000000000002,490.5 960.5,540.5" stroke="black" stroke-linecap="round" stroke-width="1" /><polyline clip-path="url(#border_clip)" fill="none" points="960.5,470.5 1010.5,470.5000000000002 1010.5000000000002,420.5000000000002 960.5000000000002,420.5 960.5,470.5" stroke="black" stroke-linecap="round" stroke-width="1" /><polyline clip-path="url(#border_clip)" fill="none" points="1030.5,750.5 1080.5,750.5000000000002 1080.5000000000002,700.5000000000002 1030.5000000000002,700.5 1030.5,750.5" stroke="black" stroke-linecap="round" stroke-width="1" /><polyline clip-path="url(#border_clip)" fill="none" points="1030.5,680.5 1080.5,680.5000000000002 1080.5000000000002,630.5000000000002 1030.5000000000002,630.5 1030.5,680.5" stroke="black" stroke-linecap="round" stroke-width="1" /><polyline clip-path="url(#border_clip)" fill="none" points="1030.5,610.5 1080.5,610.5000000000002 1080.5000000000002,560.5000000000002 1030.5000000000002,560.5 1030.5,610.5" stroke="black" stroke-linecap="round" stroke-width="1" /><polyline clip-path="url(#border_clip)" fill="none" points="1030.5,540.5 1080.5,540.5000000000002 1080.5000000000002,490.5000000000003 1030.5000000000002,490.5 1030.5,540.5" stroke="black" stroke-linecap="round" stroke-width="1" /><polyline clip-path="url(#border_clip)" fill="none" points="1030.5,470.5 1080.5,470.5000000000003 1080.5000000000002,420.5000000000003 1030.5000000000002,420.5 1030.5,470.5" stroke="black" stroke-linecap="round" stroke-width="1" /><polyline clip-path="url(#border_clip)" fill="none" points="1100.5,750.5 1150.5,750.5000000000003 1150.5000000000002,700.5000000000003 1100.5000000000002,700.5 1100.5,750.5" stroke="black" stroke-linecap="round" stroke-width="1" /><polyline clip-path="url(#border_clip)" fill="none" points="1100.5,680.5 1150.5,680.5000000000003 1150.5000000000005,630.5000000000003 1100.5000000000005,630.5 1100.5,680.5" stroke="black" stroke-linecap="round" stroke-width="1" /><polyline clip-path="url(#border_clip)" fill="none" points="1100.5,610.5 1150.5,610.5000000000003 1150.5000000000005,560.5000000000003 1100.5000000000005,560.5 1100.5,610.5" stroke="black" stroke-linecap="round" stroke-width="1" /><polyline clip-path="url(#border_clip)" fill="none" points="1100.5,540.5 1150.5,540.5000000000003 1150.5000000000005,490.50000000000034 1100.5000000000005,490.5 1100.5,540.5" stroke="black" stroke-linecap="round" stroke-width="1" /><polyline clip-path="url(#border_clip)" fill="none" points="1100.5,470.5 1150.5,470.50000000000034 1150.5000000000005,420.50000000000034 1100.5000000000005,420.5 1100.5,470.5" stroke="black" stroke-linecap="round" stroke-width="1" /></svg>