<?xml version="1.0" encoding="utf-8" ?>
<svg baseProfile="full" height="600px" version="1.1" width="1000px" xmlns="http://www.w3.org/2000/svg" xmlns:ev="http://www.w3.org/2001/xml-events" xmlns:xlink="http://www.w3.org/1999/xlink"><defs /><polygon clip-path="url(#border_clip)" fill="#008000" fill-rule="evenodd" points="200.5,500.5 250.5,500.5 250.5,450.5 200.5,450.5 200.5,500.5" stroke-width="0" /><text clip-path="url(#border_clip)" fill="black" style="font-family: Arial; font-size: 24.75; font-style: normal;" text-anchor="middle" x="224.5" y="483.75">A1</text><polygon clip-path="url(#border_clip)" fill="#008000" fill-rule="evenodd" points="270.5,500.5 320.5,500.5 320.5,450.5 270.5,450.5 270.5,500.5" stroke-width="0" /><text clip-path="url(#border_clip)" fill="black" style="font-family: Arial; font-size: 24.75; font-style: normal;" text-anchor="middle" x="294.5" y="483.75">A2</text><polygon clip-path="url(#border_clip)" fill="#008000" fill-rule="evenodd" points="340.5,500.5 390.5,500.5 390.5,450.5 340.5,450.5 340.5,500.5" stroke-width="0" /><text clip-path="url(#border_clip)" fill="black" style="font-family: Arial; font-size: 24.75; font-style: normal;" text-anchor="middle" x="364.5" y="483.75">A3</text><polygon clip-path="url(#border_clip)" fill="#008000" fill-rule="evenodd" points="410.5,500.5 460.5,500.5 460.50000000000006,450.5 410.50000000000006,450.5 410.5,500.5" stroke-width="0" /><text clip-path="url(#border_clip)" fill="black" style="font-family: Arial; font-size: 24.75; font-style: normal;" text-anchor="middle" x="434.5" y="483.75">A4</text><polygon clip-path="url(#border_clip)" fill="#008000" fill-rule="evenodd" points="480.5,500.5 530.5,500.50000000000006 530.5,450.50000000000006 480.50000000000006,450.5 480.5,500.5" stroke-width="0" /><text clip-path="url(#border_clip)" fill="black" style="font-family: Arial; font-size: 24.75; font-style: normal;" text-anchor="middle" x="504.5" y="483.75">A5</text><polygon clip-path="url(#border_clip)" fill="#008000" fill-rule="evenodd" points="550.5,500.5 600.5,500.50000000000006 600.5000000000001,450.50000000000006 550.5000000000001,450.5 550.5,500.5" stroke-width="0" /><text clip-path="url(#border_clip)" fill="black" style="font-family: Arial; font-size: 24.75; font-style: normal;" text-anchor="middle" x="574.5" y="483.75">A6</text><polygon clip-path="url(#border_clip)" fill="#008000" fill-rule="evenodd" points="620.5,500.5 670.5,500.5000000000001 670.5000000000001,450.5000000000001 620.5000000000001,450.5 620.5,500.5" stroke-width="0" /><text clip-path="url(#border_clip)" fill="black" style="font-family: Arial; font-size: 24.75; font-style: normal;" text-anchor="middle" x="644.5" y="483.75">A7</text><polygon clip-path="url(#border_clip)" fill="#008000" fill-rule="evenodd" points="690.5,500.5 740.5,500.5000000000001 740.5000000000001,450.5000000000001 690.5000000000001,450.5 690.5,500.5" stroke-width="0" /><text clip-path="url(#border_clip)" fill="black" style="font-family: Arial; font-size: 24.75; font-style: normal;" text-anchor="middle" x="714.5" y="483.75">A8</text><polygon clip-path="url(#border_clip)" fill="#008000" fill-rule="evenodd" points="760.5,500.5 810.5,500.5000000000001 810.5000000000001,450.5000000000001 760.5000000000001,450.5 760.5,500.5" stroke-width="0" /><text clip-path="url(#border_clip)" fill="black" style="font-family: Arial; font-size: 24.75; font-style: normal;" text-anchor="middle" x="784.5" y="483.75">A9</text><polygon clip-path="url(#border_clip)" fill="#008000" fill-rule="evenodd" points="830.5,500.5 880.5,500.5000000000001 880.5000000000001,450.5000000000001 830.5000000000001,450.5 830.5,500.5" stroke-width="0" /><text clip-path="url(#border_clip)" fill="black" style="font-family: Arial; font-size: 24.75; font-style: normal;" text-anchor="middle" x="854.5" y="483.75">A10</text><polygon clip-path="url(#border_clip)" fill="#008000" fill-rule="evenodd" points="200.5,430.5 250.5,430.5000000000001 250.5000000000001,380.5000000000001 200.5000000000001,380.5 200.5,430.5" stroke-width="0" /><text clip-path="url(#border_clip)" fill="black" style="font-family: Arial; font-size: 24.75; font-style: normal;" text-anchor="middle" x="224.5" y="413.75">B1</text><polygon clip-path="url(#border_clip)" fill="#008000" fill-rule="evenodd" points="270.5,430.5 320.5,430.5000000000001 320.5000000000001,380.5000000000001 270.5000000000001,380.5 270.5,430.5" stroke-width="0" /><text clip-path="url(#border_clip)" fill="black" style="font-family: Arial; font-size: 24.75; font-style: normal;" text-anchor="middle" x="294.5" y="413.75">B2</text><polygon clip-path="url(#border_clip)" fill="#008000" fill-rule="evenodd" points="340.5,430.5 390.5,430.5000000000001 390.50000000000017,380.5000000000001 340.50000000000017,380.5 340.5,430.5" stroke-width="0" /><text clip-path="url(#border_clip)" fill="black" style="font-family: Arial; font-size: 24.75; font-style: normal;" text-anchor="middle" x="364.5" y="413.75">B3</text><polygon clip-path="url(#border_clip)" fill="#008000" fill-rule="evenodd" points="410.5,430.5 460.5,430.50000000000017 460.50000000000017,380.50000000000017 410.50000000000017,380.5 410.5,430.5" stroke-width="0" /><text clip-path="url(#border_clip)" fill="black" style="font-family: Arial; font-size: 24.75; font-style: normal;" text-anchor="middle" x="434.5" y="413.75">B4</text><polygon clip-path="url(#border_clip)" fill="#008000" fill-rule="evenodd" points="480.5,430.5 530.5,430.50000000000017 530.5000000000002,380.50000000000017 480.50000000000017,380.5 480.5,430.5" stroke-width="0" /><text clip-path="url(#border_clip)" fill="black" style="font-family: Arial; font-size: 24.75; font-style: normal;" text-anchor="middle" x="504.5" y="413.75">B5</text><polygon clip-path="url(#border_clip)" fill="#008000" fill-rule="evenodd" points="550.5,430.5 600.5,430.50000000000017 600.5000000000002,380.50000000000017 550.5000000000002,380.5 550.5,430.5" stroke-width="0" /><text clip-path="url(#border_clip)" fill="black" style="font-family: Arial; font-size: 24.75; font-style: normal;" text-anchor="middle" x="574.5" y="413.75">B6</text><polygon clip-path="url(#border_clip)" fill="#008000" fill-rule="evenodd" points="620.5,430.5 670.5,430.5000000000002 670.5000000000002,380.5000000000002 620.5000000000002,380.5 620.5,430.5" stroke-width="0" /><text clip-path="url(#border_clip)" fill="black" style="font-family: Arial; font-size: 24.75; font-style: normal;" text-anchor="middle" x="644.5" y="413.75">B7</text><polygon clip-path="url(#border_clip)" fill="#008000" fill-rule="evenodd" points="690.5,430.5 740.5,430.5000000000002 740.5000000000002,380.5000000000002 690.5000000000002,380.5 690.5,430.5" stroke-width="0" /><text clip-path="url(#border_clip)" fill="black" style="font-family: Arial; font-size: 24.75; font-style: normal;" text-anchor="middle" x="714.5" y="413.75">B8</text><polygon clip-path="url(#border_clip)" fill="#008000" fill-rule="evenodd" points="760.5,430.5 810.5,430.5000000000002 810.5000000000002,380.5000000000002 760.5000000000002,380.5 760.5,430.5" stroke-width="0" /><text clip-path="url(#border_clip)" fill="black" style="font-family: Arial; font-size: 24.75; font-style: normal;" text-anchor="middle" x="784.5" y="413.75">B9</text><polygon clip-path="url(#border_clip)" fill="#008000" fill-rule="evenodd" points="830.5,430.5 880.5,430.5000000000002 880.5000000000002,380.5000000000002 830.5000000000002,380.5 830.5,430.5" stroke-width="0" /><text clip-path="url(#border_clip)" fill="black" style="font-family: Arial; font-size: 24.75; font-style: normal;" text-anchor="middle" x="854.5" y="413.75">B10</text><polygon clip-path="url(#border_clip)" fill="#008000" fill-rule="evenodd" points="200.5,360.5 250.5,360.5000000000002 250.50000000000026,310.5000000000002 200.50000000000023,310.5 200.5,360.5" stroke-width="0" /><text clip-path="url(#border_clip)" fill="black" style="font-family: Arial; font-size: 24.75; font-style: normal;" text-anchor="middle" x="224.5" y="343.75">C1</text><polygon clip-path="url(#border_clip)" fill="#008000" fill-rule="evenodd" points="270.5,360.5 320.5,360.5000000000002 320.5000000000002,310.5000000000002 270.5000000000002,310.5 270.5,360.5" stroke-width="0" /><text clip-path="url(#border_clip)" fill="black" style="font-family: Arial; font-size: 24.75; font-style: normal;" text-anchor="middle" x="294.5" y="343.75">C2</text><polygon clip-path="url(#border_clip)" fill="#008000" fill-rule="evenodd" points="340.5,360.5 390.5,360.5000000000003 390.5000000000003,310.5000000000003 340.5000000000003,310.5 340.5,360.5" stroke-width="0" /><text clip-path="url(#border_clip)" fill="black" style="font-family: Arial; font-size: 24.75; font-style: normal;" text-anchor="middle" x="364.5" y="343.75">C3</text><polygon clip-path="url(#border_clip)" fill="#008000" fill-rule="evenodd" points="410.5,360.5 460.5,360.5000000000003 460.5000000000003,310.5000000000003 410.5000000000003,310.5 410.5,360.5" stroke-width="0" /><text clip-path="url(#border_clip)" fill="black" style="font-family: Arial; font-size: 24.75; font-style: normal;" text-anchor="middle" x="434.5" y="343.75">C4</text><polygon clip-path="url(#border_clip)" fill="#008000" fill-rule="evenodd" points="480.5,360.5 530.5,360.5000000000003 530.5000000000003,310.5000000000003 480.5000000000003,310.5 480.5,360.5" stroke-width="0" /><text clip-path="url(#border_clip)" fill="black" style="font-family: Arial; font-size: 24.75; font-style: normal;" text-anchor="middle" x="504.5" y="343.75">C5</text><polygon clip-path="url(#border_clip)" fill="#008000" fill-rule="evenodd" points="550.5,360.5 600.5,360.5000000000003 600.5000000000003,310.5000000000003 550.5000000000003,310.5 550.5,360.5" stroke-width="0" /><text clip-path="url(#border_clip)" fill="black" style="font-family: Arial; font-size: 24.75; font-style: normal;" text-anchor="middle" x="574.5" y="343.75">C6</text><polygon clip-path="url(#border_clip)" fill="#008000" fill-rule="evenodd" points="620.5,360.5 670.5,360.50000000000034 670.5000000000003,310.50000000000034 620.5000000000003,310.5 620.5,360.5" stroke-width="0" /><text clip-path="url(#border_clip)" fill="black" style="font-family: Arial; font-size: 24.75; font-style: normal;" text-anchor="middle" x="644.5" y="343.75">C7</text><polygon clip-path="url(#border_clip)" fill="#008000" fill-rule="evenodd" points="690.5,360.5 740.5,360.50000000000034 740.5000000000003,310.50000000000034 690.5000000000003,310.5 690.5,360.5" stroke-width="0" /><text clip-path="url(#border_clip)" fill="black" style="font-family: Arial; font-size: 24.75; font-style: normal;" text-anchor="middle" x="714.5" y="343.75">C8</text><polygon clip-path="url(#border_clip)" fill="#008000" fill-rule="evenodd" points="760.5,360.5 810.5,360.50000000000034 810.5000000000003,310.50000000000034 760.5000000000003,310.5 760.5,360.5" stroke-width="0" /><text clip-path="url(#border_clip)" fill="black" style="font-family: Arial; font-size: 24.75; font-style: normal;" text-anchor="middle" x="784.5" y="343.75">C9</text><polygon clip-path="url(#border_clip)" fill="#008000" fill-rule="evenodd" points="830.5,360.5 880.5,360.50000000000034 880.5000000000003,310.50000000000034 830.5000000000003,310.5 830.5,360.5" stroke-width="0" /><text clip-path="url(#border_clip)" fill="black" style="font-family: Arial; font-size: 24.75; font-style: normal;" text-anchor="middle" x="854.5" y="343.75">C10</text><polygon clip-path="url(#border_clip)" fill="#008000" fill-rule="evenodd" points="200.5,290.5 250.5,290.50000000000034 250.50000000000037,240.50000000000037 200.50000000000034,240.5 200.49999999999994,290.5" stroke-width="0" /><text clip-path="url(#border_clip)" fill="black" style="font-family: Arial; font-size: 24.75; font-style: normal;" text-anchor="middle" x="224.5" y="273.75">D1</text><polygon clip-path="url(#border_clip)" fill="#008000" fill-rule="evenodd" points="270.5,290.5 320.5,290.5000000000004 320.50000000000034,240.5000000000004 270.50000000000034,240.5 270.5,290.5" stroke-width="0" /><text clip-path="url(#border_clip)" fill="black" style="font-family: Arial; font-size: 24.75; font-style: normal;" text-anchor="middle" x="294.5" y="273.75">D2</text><polygon clip-path="url(#border_clip)" fill="#008000" fill-rule="evenodd" points="340.5,290.5 390.5,290.5000000000004 390.5000000000004,240.5000000000004 340.5000000000004,240.5 340.5,290.5" stroke-width="0" /><text clip-path="url(#border_clip)" fill="black" style="font-family: Arial; font-size: 24.75; font-style: normal;" text-anchor="middle" x="364.5" y="273.75">D3</text><polygon clip-path="url(#border_clip)" fill="#008000" fill-rule="evenodd" points="410.5,290.5 460.5,290.5000000000004 460.5000000000004,240.5000000000004 410.5000000000004,240.5 410.5,290.5" stroke-width="0" /><text clip-path="url(#border_clip)" fill="black" style="font-family: Arial; font-size: 24.75; font-style: normal;" text-anchor="middle" x="434.5" y="273.75">D4</text><polygon clip-path="url(#border_clip)" fill="#008000" fill-rule="evenodd" points="480.5,290.5 530.5,290.5000000000004 530.5000000000005,240.5000000000004 480.5000000000004,240.5 480.5,290.5" stroke-width="0" /><text clip-path="url(#border_clip)" fill="black" style="font-family: Arial; font-size: 24.75; font-style: normal;" text-anchor="middle" x="504.5" y="273.75">D5</text><polygon clip-path="url(#border_clip)" fill="#008000" fill-rule="evenodd" points="550.5,290.5 600.5,290.50000000000045 600.5000000000005,240.50000000000043 550.5000000000005,240.5 550.5,290.5" stroke-width="0" /><text clip-path="url(#border_clip)" fill="black" style="font-family: Arial; font-size: 24.75; font-style: normal;" text-anchor="middle" x="574.5" y="273.75">D6</text><polygon clip-path="url(#border_clip)" fill="#008000" fill-rule="evenodd" points="620.5,290.5 670.5,290.50000000000045 670.5000000000005,240.50000000000045 620.5000000000005,240.5 620.5,290.5" stroke-width="0" /><text clip-path="url(#border_clip)" fill="black" style="font-family: Arial; font-size: 24.75; font-style: normal;" text-anchor="middle" x="644.5" y="273.75">D7</text><polygon clip-path="url(#border_clip)" fill="#008000" fill-rule="evenodd" points="690.5,290.5 740.5,290.50000000000045 740.5000000000005,240.50000000000045 690.5000000000005,240.5 690.5,290.5" stroke-width="0" /><text clip-path="url(#border_clip)" fill="black" style="font-family: Arial; font-size: 24.75; font-style: normal;" text-anchor="middle" x="714.5" y="273.75">D8</text><polygon clip-path="url(#border_clip)" fill="#008000" fill-rule="evenodd" points="760.5,290.5 810.5,290.50000000000045 810.5000000000005,240.50000000000045 760.5000000000005,240.5 760.5,290.5" stroke-width="0" /><text clip-path="url(#border_clip)" fill="black" style="font-family: Arial; font-size: 24.75; font-style: normal;" text-anchor="middle" x="784.5" y="273.75">D9</text><polygon clip-path="url(#border_clip)" fill="#008000" fill-rule="evenodd" points="830.5,290.5 880.5,290.50000000000045 880.5000000000005,240.50000000000048 830.5000000000005,240.5 830.5,290.5" stroke-width="0" /><text clip-path="url(#border_clip)" fill="black" style="font-family: Arial; font-size: 24.75; font-style: normal;" text-anchor="middle" x="854.5" y="273.75">D10</text><polygon clip-path="url(#border_clip)" fill="#008000" fill-rule="evenodd" points="200.5,220.5 250.5,220.50000000000048 250.50000000000048,170.50000000000048 200.50000000000045,170.5 200.49999999999994,220.5" stroke-width="0" /><text clip-path="url(#border_clip)" fill="black" style="font-family: Arial; font-size: 24.75; font-style: normal;" text-anchor="middle" x="224.5" y="203.75">E1</text><polygon clip-path="url(#border_clip)" fill="#008000" fill-rule="evenodd" points="270.5,220.5 320.5,220.5000000000005 320.5000000000005,170.5000000000005 270.5000000000005,170.5 270.5,220.5" stroke-width="0" /><text clip-path="url(#border_clip)" fill="black" style="font-family: Arial; font-size: 24.75; font-style: normal;" text-anchor="middle" x="294.5" y="203.75">E2</text><polygon clip-path="url(#border_clip)" fill="#008000" fill-rule="evenodd" points="340.5,220.5 390.5,220.5000000000005 390.5000000000005,170.5000000000005 340.5000000000005,170.5 340.5,220.5" stroke-width="0" /><text clip-path="url(#border_clip)" fill="black" style="font-family: Arial; font-size: 24.75; font-style: normal;" text-anchor="middle" x="364.5" y="203.75">E3</text><polygon clip-path="url(#border_clip)" fill="#008000" fill-rule="evenodd" points="410.5,220.5 460.5,220.5000000000005 460.5000000000005,170.5000000000005 410.50000000000057,170.49999999999997 410.5,220.49999999999997" stroke-width="0" /><text clip-path="url(#border_clip)" fill="black" style="font-family: Arial; font-size: 24.75; font-style: normal;" text-anchor="middle" x="434.5" y="203.75">E4</text><polygon clip-path="url(#border_clip)" fill="#008000" fill-rule="evenodd" points="480.5,220.5 530.5,220.50000000000054 530.5000000000006,170.50000000000054 480.50000000000057,170.5 480.5,220.5" stroke-width="0" /><text clip-path="url(#border_clip)" fill="black" style="font-family: Arial; font-size: 24.75; font-style: normal;" text-anchor="middle" x="504.5" y="203.75">E5</text><polygon clip-path="url(#border_clip)" fill="#008000" fill-rule="evenodd" points="550.5,220.5 600.5,220.50000000000057 600.5000000000006,170.50000000000057 550.5000000000006,170.5 550.5,220.5" stroke-width="0" /><text clip-path="url(#border_clip)" fill="black" style="font-family: Arial; font-size: 24.75; font-style: normal;" text-anchor="middle" x="574.5" y="203.75">E6</text><polygon clip-path="url(#border_clip)" fill="#008000" fill-rule="evenodd" points="620.5,220.5 670.5,220.50000000000057 670.5000000000006,170.50000000000057 620.5000000000006,170.5 620.5,220.5" stroke-width="0" /><text clip-path="url(#border_clip)" fill="black" style="font-family: Arial; font-size: 24.75; font-style: normal;" text-anchor="middle" x="644.5" y="203.75">E7</text><polygon clip-path="url(#border_clip)" fill="#008000" fill-rule="evenodd" points="690.5,220.5 740.5,220.50000000000057 740.5000000000006,170.50000000000057 690.5000000000006,170.5 690.5,220.5" stroke-width="0" /><text clip-path="url(#border_clip)" fill="black" style="font-family: Arial; font-size: 24.75; font-style: normal;" text-anchor="middle" x="714.5" y="203.75">E8</text><polygon clip-path="url(#border_clip)" fill="#008000" fill-rule="evenodd" points="760.5,220.5 810.5,220.50000000000057 810.5000000000006,170.50000000000057 760.5000000000006,170.49999999999997 760.5,220.49999999999997" stroke-width="0" /><text clip-path="url(#border_clip)" fill="black" style="font-family: Arial; font-size: 24.75; font-style: normal;" text-anchor="middle" x="784.5" y="203.75">E9</text><polygon clip-path="url(#border_clip)" fill="#008000" fill-rule="evenodd" points="830.5,220.5 880.5,220.5000000000006 880.5000000000007,170.5000000000006 830.5000000000007,170.5 830.5,220.5" stroke-width="0" /><text clip-path="url(#border_clip)" fill="black" style="font-family: Arial; font-size: 24.75; font-style: normal;" text-anchor="middle" x="854.5" y="203.75">E10</text><polygon clip-path="url(#border_clip)" fill="#008000" fill-rule="evenodd" points="200.5,150.5 250.5,150.50000000000063 250.50000000000063,100.50000000000063 200.50000000000063,100.5 200.5,150.5" stroke-width="0" /><text clip-path="url(#border_clip)" fill="black" style="font-family: Arial; font-size: 24.75; font-style: normal;" text-anchor="middle" x="224.5" y="133.75">F1</text><polygon clip-path="url(#border_clip)" fill="#008000" fill-rule="evenodd" points="270.5,150.5 320.5,150.50000000000063 320.5000000000006,100.50000000000063 270.5000000000006,100.5 270.5,150.5" stroke-width="0" /><text clip-path="url(#border_clip)" fill="black" style="font-family: Arial; font-size: 24.75; font-style: normal;" text-anchor="middle" x="294.5" y="133.75">F2</text><polygon clip-path="url(#border_clip)" fill="#008000" fill-rule="evenodd" points="340.5,150.5 390.5,150.50000000000063 390.5000000000006,100.50000000000063 340.5000000000006,100.49999999999997 340.5,150.49999999999997" stroke-width="0" /><text clip-path="url(#border_clip)" fill="black" style="font-family: Arial; font-size: 24.75; font-style: normal;" text-anchor="middle" x="364.5" y="133.75">F3</text><polygon clip-path="url(#border_clip)" fill="#008000" fill-rule="evenodd" points="410.5,150.5 460.5,150.50000000000065 460.5000000000007,100.50000000000065 410.5000000000007,100.5 410.5,150.5" stroke-width="0" /><text clip-path="url(#border_clip)" fill="black" style="font-family: Arial; font-size: 24.75; font-style: normal;" text-anchor="middle" x="434.5" y="133.75">F4</text><polygon clip-path="url(#border_clip)" fill="#008000" fill-rule="evenodd" points="480.5,150.5 530.5,150.50000000000065 530.5000000000007,100.50000000000065 480.5000000000007,100.5 480.5,150.5" stroke-width="0" /><text clip-path="url(#border_clip)" fill="black" style="font-family: Arial; font-size: 24.75; font-style: normal;" text-anchor="middle" x="504.5" y="133.75">F5</text><polygon clip-path="url(#border_clip)" fill="#008000" fill-rule="evenodd" points="550.5,150.5 600.5,150.50000000000068 600.5000000000007,100.50000000000068 550.5000000000007,100.5 550.5,150.5" stroke-width="0" /><text clip-path="url(#border_clip)" fill="black" style="font-family: Arial; font-size: 24.75; font-style: normal;" text-anchor="middle" x="574.5" y="133.75">F6</text><polygon clip-path="url(#border_clip)" fill="#008000" fill-rule="evenodd" points="620.5,150.5 670.5,150.50000000000068 670.5000000000007,100.50000000000068 620.5000000000007,100.5 620.5,150.5" stroke-width="0" /><text clip-path="url(#border_clip)" fill="black" style="font-family: Arial; font-size: 24.75; font-style: normal;" text-anchor="middle" x="644.5" y="133.75">F7</text><polygon clip-path="url(#border_clip)" fill="#008000" fill-rule="evenodd" points="690.5,150.5 740.5,150.5000000000007 740.5000000000007,100.50000000000071 690.5000000000007,100.5 690.5,150.5" stroke-width="0" /><text clip-path="url(#border_clip)" fill="black" style="font-family: Arial; font-size: 24.75; font-style: normal;" text-anchor="middle" x="714.5" y="133.75">F8</text><polygon clip-path="url(#border_clip)" fill="#008000" fill-rule="evenodd" points="760.5,150.5 810.5,150.5000000000007 810.5000000000007,100.50000000000071 760.5000000000007,100.5 760.5,150.5" stroke-width="0" /><text clip-path="url(#border_clip)" fill="black" style="font-family: Arial; font-size: 24.75; font-style: normal;" text-anchor="middle" x="784.5" y="133.75">F9</text><polygon clip-path="url(#border_clip)" fill="#008000" fill-rule="evenodd" points="830.5,150.5 880.5,150.5000000000007 880.5000000000007,100.50000000000071 830.5000000000007,100.49999999999997 830.5,150.49999999999997" stroke-width="0" /><text clip-path="url(#border_clip)" fill="black" style="font-family: Arial; font-size: 24.75; font-style: normal;" text-anchor="middle" x="854.5" y="133.75">F10</text><polygon clip-path="url(#border_clip)" fill="black" fill-rule="evenodd" points="855.5,140.5 180.5,590.5 930.5,590.500000000011 930.5000000000007,540.500000000011 180.50000000000074,540.4999999999999 180.5,590.4999999999999" stroke-width="0" /><text clip-path="url(#border_clip)" fill="#ffffff" style="font-family: Arial; font-size: 24.75; font-style: normal;" text-anchor="middle" x="559.5" y="568.75">SCREEN</text><polyline clip-path="url(#border_clip)" fill="none" points="200.5,500.5 250.5,500.5 250.5,450.5 200.5,450.5 200.5,500.5" stroke="black" stroke-linecap="round" stroke-width="1" /><polyline clip-path="url(#border_clip)" fill="none" points="270.5,500.5 320.5,500.5 320.5,450.5 270.5,450.5 270.5,500.5" stroke="black" stroke-linecap="round" stroke-width="1" /><polyline clip-path="url(#border_clip)" fill="none" points="340.5,500.5 390.5,500.5 390.5,450.5 340.5,450.5 340.5,500.5" stroke="black" stroke-linecap="round" stroke-width="1" /><polyline clip-path="url(#border_clip)" fill="none" points="410.5,500.5 460.5,500.5 460.50000000000006,450.5 410.50000000000006,450.5 410.5,500.5" stroke="black" stroke-linecap="round" stroke-width="1" /><polyline clip-path="url(#border_clip)" fill="none" points="480.5,500.5 530.5,500.50000000000006 530.5,450.50000000000006 480.50000000000006,450.5 480.5,500.5" stroke="black" stroke-linecap="round" stroke-width="1" /><polyline clip-path="url(#border_clip)" fill="none" points="550.5,500.5 600.5,500.50000000000006 600.5000000000001,450.50000000000006 550.5000000000001,450.5 550.5,500.5" stroke="black" stroke-linecap="round" stroke-width="1" /><polyline clip-path="url(#border_clip)" fill="none" points="620.5,500.5 670.5,500.5000000000001 670.5000000000001,450.5000000000001 620.5000000000001,450.5 620.5,500.5" stroke="black" stroke-linecap="round" stroke-width="1" /><polyline clip-path="url(#border_clip)" fill="none" points="690.5,500.5 740.5,500.5000000000001 740.5000000000001,450.5000000000001 690.5000000000001,450.5 690.5,500.5" stroke="black" stroke-linecap="round" stroke-width="1" /><polyline clip-path="url(#border_clip)" fill="none" points="760.5,500.5 810.5,500.5000000000001 810.5000000000001,450.5000000000001 760.5000000000001,450.5 760.5,500.5" stroke="black" stroke-linecap="round" stroke-width="1" /><polyline clip-path="url(#border_clip)" fill="none" points="830.5,500.5 880.5,500.5000000000001 880.5000000000001,450.5000000000001 830.5000000000001,450.5 830.5,500.5" stroke="black" stroke-linecap="round" stroke-width="1" /><polyline clip-path="url(#border_clip)" fill="none" points="200.5,430.5 250.5,430.5000000000001 250.5000000000001,380.5000000000001 200.5000000000001,380.5 200.5,430.5" stroke="black" stroke-linecap="round" stroke-width="1" /><polyline clip-path="url(#border_clip)" fill="none" points="270.5,430.5 320.5,430.5000000000001 320.5000000000001,380.5000000000001 270.5000000000001,380.5 270.5,430.5" stroke="black" stroke-linecap="round" stroke-width="1" /><polyline clip-path="url(#border_clip)" fill="none" points="340.5,430.5 390.5,430.5000000000001 390.50000000000017,380.5000000000001 340.50000000000017,380.5 340.5,430.5" stroke="black" stroke-linecap="round" stroke-width="1" /><polyline clip-path="url(#border_clip)" fill="none" points="410.5,430.5 460.5,430.50000000000017 460.50000000000017,380.50000000000017 410.50000000000017,380.5 410.5,430.5" stroke="black" stroke-linecap="round" stroke-width="1" /><polyline clip-path="url(#border_clip)" fill="none" points="480.5,430.5 530.5,430.50000000000017 530.5000000000002,380.50000000000017 480.50000000000017,380.5 480.5,430.5" stroke="black" stroke-linecap="round" stroke-width="1" /><polyline clip-path="url(#border_clip)" fill="none" points="550.5,430.5 600.5,430.50000000000017 600.5000000000002,380.50000000000017 550.5000000000002,380.5 550.5,430.5" stroke="black" stroke-linecap="round" stroke-width="1" /><polyline clip-path="url(#border_clip)" fill="none" points="620.5,430.5 670.5,430.5000000000002 670.5000000000002,380.5000000000002 620.5000000000002,380.5 620.5,430.5" stroke="black" stroke-linecap="round" stroke-width="1" /><polyline clip-path="url(#border_clip)" fill="none" points="690.5,430.5 740.5,430.5000000000002 740.5000000000002,380.5000000000002 690.5000000000002,380.5 690.5,430.5" stroke="black" stroke-linecap="round" stroke-width="1" /><polyline clip-path="url(#border_clip)" fill="none" points="760.5,430.5 810.5,430.5000000000002 810.5000000000002,380.5000000000002 760.5000000000002,380.5 760.5,430.5" stroke="black" stroke-linecap="round" stroke-width="1" /><polyline clip-path="url(#border_clip)" fill="none" points="830.5,430.5 880.5,430.5000000000002 880.5000000000002,380.5000000000002 830.5000000000002,380.5 830.5,430.5" stroke="black" stroke-linecap="round" stroke-width="1" /><polyline clip-path="url(#border_clip)" fill="none" points="200.5,360.5 250.5,360.5000000000002 250.50000000000026,310.5000000000002 200.50000000000023,310.5 200.5,360.5" stroke="black" stroke-linecap="round" stroke-width="1" /><polyline clip-path="url(#border_clip)" fill="none" points="270.5,360.5 320.5,360.5000000000002 320.5000000000002,310.5000000000002 270.5000000000002,310.5 270.5,360.5" stroke="black" stroke-linecap="round" stroke-width="1" /><polyline clip-path="url(#border_clip)" fill="none" points="340.5,360.5 390.5,360.5000000000003 390.5000000000003,310.5000000000003 340.5000000000003,310.5 340.5,360.5" stroke="black" stroke-linecap="round" stroke-width="1" /><polyline clip-path="url(#border_clip)" fill="none" points="410.5,360.5 460.5,360.5000000000003 460.5000000000003,310.5000000000003 410.5000000000003,310.5 410.5,360.5" stroke="black" stroke-linecap="round" stroke-width="1" /><polyline clip-path="url(#border_clip)" fill="none" points="480.5,360.5 530.5,360.5000000000003 530.5000000000003,310.5000000000003 480.5000000000003,310.5 480.5,360.5" stroke="black" stroke-linecap="round" stroke-width="1" /><polyline clip-path="url(#border_clip)" fill="none" points="550.5,360.5 600.5,360.5000000000003 600.5000000000003,310.5000000000003 550.5000000000003,310.5 550.5,360.5" stroke="black" stroke-linecap="round" stroke-width="1" /><polyline clip-path="url(#border_clip)" fill="none" points="620.5,360.5 670.5,360.50000000000034 670.5000000000003,310.50000000000034 620.5000000000003,310.5 620.5,360.5" stroke="black" stroke-linecap="round" stroke-width="1" /><polyline clip-path="url(#border_clip)" fill="none" points="690.5,360.5 740.5,360.50000000000034 740.5000000000003,310.50000000000034 690.5000000000003,310.5 690.5,360.5" stroke="black" stroke-linecap="round" stroke-width="1" /><polyline clip-path="url(#border_clip)" fill="none" points="760.5,360.5 810.5,360.50000000000034 810.5000000000003,310.50000000000034 760.5000000000003,310.5 760.5,360.5" stroke="black" stroke-linecap="round" stroke-width="1" /><polyline clip-path="url(#border_clip)" fill="none" points="830.5,360.5 880.5,360.50000000000034 880.5000000000003,310.50000000000034 830.5000000000003,310.5 830.5,360.5" stroke="black" stroke-linecap="round" stroke-width="1" /><polyline clip-path="url(#border_clip)" fill="none" points="200.5,290.5 250.5,290.50000000000034 250.50000000000037,240.50000000000037 200.50000000000034,240.5 200.49999999999994,290.5" stroke="black" stroke-linecap="round" stroke-width="1" /><polyline clip-path="url(#border_clip)" fill="none" points="270.5,290.5 320.5,290.5000000000004 320.50000000000034,240.5000000000004 270.50000000000034,240.5 270.5,290.5" stroke="black" stroke-linecap="round" stroke-width="1" /><polyline clip-path="url(#border_clip)" fill="none" points="340.5,290.5 390.5,290.5000000000004 390.5000000000004,240.5000000000004 340.5000000000004,240.5 340.5,290.5" stroke="black" stroke-linecap="round" stroke-width="1" /><polyline clip-path="url(#border_clip)" fill="none" points="410.5,290.5 460.5,290.5000000000004 460.5000000000004,240.5000000000004 410.5000000000004,240.5 410.5,290.5" stroke="black" stroke-linecap="round" stroke-width="1" /><polyline clip-path="url(#border_clip)" fill="none" points="480.5,290.5 530.5,290.5000000000004 530.5000000000005,240.5000000000004 480.5000000000004,240.5 480.5,290.5" stroke="black" stroke-linecap="round" stroke-width="1" /><polyline clip-path="url(#border_clip)" fill="none" points="550.5,290.5 600.5,290.50000000000045 600.5000000000005,240.50000000000043 550.5000000000005,240.5 550.5,290.5" stroke="black" stroke-linecap="round" stroke-width="1" /><polyline clip-path="url(#border_clip)" fill="none" points="620.5,290.5 670.5,290.50000000000045 670.5000000000005,240.50000000000045 620.5000000000005,240.5 620.5,290.5" stroke="black" stroke-linecap="round" stroke-width="1" /><polyline clip-path="url(#border_clip)" fill="none" points="690.5,290.5 740.5,290.50000000000045 740.5000000000005,240.50000000000045 690.5000000000005,240.5 690.5,290.5" stroke="black" stroke-linecap="round" stroke-width="1" /><polyline clip-path="url(#border_clip)" fill="none" points="760.5,290.5 810.5,290.50000000000045 810.5000000000005,240.50000000000045 760.5000000000005,240.5 760.5,290.5" stroke="black" stroke-linecap="round" stroke-width="1" /><polyline clip-path="url(#border_clip)" fill="none" points="830.5,290.5 880.5,290.50000000000045 880.5000000000005,240.50000000000048 830.5000000000005,240.5 830.5,290.5" stroke="black" stroke-linecap="round" stroke-width="1" /><polyline clip-path="url(#border_clip)" fill="none" points="200.5,220.5 250.5,220.50000000000048 250.50000000000048,170.50000000000048 200.50000000000045,170.5 200.49999999999994,220.5" stroke="black" stroke-linecap="round" stroke-width="1" /><polyline clip-path="url(#border_clip)" fill="none" points="270.5,220.5 320.5,220.5000000000005 320.5000000000005,170.5000000000005 270.5000000000005,170.5 270.5,220.5" stroke="black" stroke-linecap="round" stroke-width="1" /><polyline clip-path="url(#border_clip)" fill="none" points="340.5,220.5 390.5,220.5000000000005 390.5000000000005,170.5000000000005 340.5000000000005,170.5 340.5,220.5" stroke="black" stroke-linecap="round" stroke-width="1" /><polyline clip-path="url(#border_clip)" fill="none" points="410.5,220.5 460.5,220.5000000000005 460.5000000000005,170.5000000000005 410.50000000000057,170.49999999999997 410.5,220.49999999999997" stroke="black" stroke-linecap="round" stroke-width="1" /><polyline clip-path="url(#border_clip)" fill="none" points="480.5,220.5 530.5,220.50000000000054 530.5000000000006,170.50000000000054 480.50000000000057,170.5 480.5,220.5" stroke="black" stroke-linecap="round" stroke-width="1" /><polyline clip-path="url(#border_clip)" fill="none" points="550.5,220.5 600.5,220.50000000000057 600.5000000000006,170.50000000000057 550.5000000000006,170.5 550.5,220.5" stroke="black" stroke-linecap="round" stroke-width="1" /><polyline clip-path="url(#border_clip)" fill="none" points="620.5,220.5 670.5,220.50000000000057 670.5000000000006,170.50000000000057 620.5000000000006,170.5 620.5,220.5" stroke="black" stroke-linecap="round" stroke-width="1" /><polyline clip-path="url(#border_clip)" fill="none" points="690.5,220.5 740.5,220.50000000000057 740.5000000000006,170.50000000000057 690.5000000000006,170.5 690.5,220.5" stroke="black" stroke-linecap="round" stroke-width="1" /><polyline clip-path="url(#border_clip)" fill="none" points="760.5,220.5 810.5,220.50000000000057 810.5000000000006,170.50000000000057 760.5000000000006,170.49999999999997 760.5,220.49999999999997" stroke="black" stroke-linecap="round" stroke-width="1" /><polyline clip-path="url(#border_clip)" fill="none" points="830.5,220.5 880.5,220.5000000000006 880.5000000000007,170.5000000000006 830.5000000000007,170.5 830.5,220.5" stroke="black" stroke-linecap="round" stroke-width="1" /><polyline clip-path="url(#border_clip)" fill="none" points="200.5,150.5 250.5,150.50000000000063 250.50000000000063,100.50000000000063 200.50000000000063,100.5 200.5,150.5" stroke="black" stroke-linecap="round" stroke-width="1" /><polyline clip-path="url(#border_clip)" fill="none" points="270.5,150.5 320.5,150.50000000000063 320.5000000000006,100.50000000000063 270.5000000000006,100.5 270.5,150.5" stroke="black" stroke-linecap="round" stroke-width="1" /><polyline clip-path="url(#border_clip)" fill="none" points="340.5,150.5 390.5,150.50000000000063 390.5000000000006,100.50000000000063 340.5000000000006,100.49999999999997 340.5,150.49999999999997" stroke="black" stroke-linecap="round" stroke-width="1" /><polyline clip-path="url(#border_clip)" fill="none" points="410.5,150.5 460.5,150.50000000000065 460.5000000000007,100.50000000000065 410.5000000000007,100.5 410.5,150.5" stroke="black" stroke-linecap="round" stroke-width="1" /><polyline clip-path="url(#border_clip)" fill="none" points="480.5,150.5 530.5,150.50000000000065 530.5000000000007,100.50000000000065 480.5000000000007,100.5 480.5,150.5" stroke="black" stroke-linecap="round" stroke-width="1" /><polyline clip-path="url(#border_clip)" fill="none" points="550.5,150.5 600.5,150.50000000000068 600.5000000000007,100.50000000000068 550.5000000000007,100.5 550.5,150.5" stroke="black" stroke-linecap="round" stroke-width="1" /><polyline clip-path="url(#border_clip)" fill="none" points="620.5,150.5 670.5,150.50000000000068 670.5000000000007,100.50000000000068 620.5000000000007,100.5 620.5,150.5" stroke="black" stroke-linecap="round" stroke-width="1" /><polyline clip-path="url(#border_clip)" fill="none" points="690.5,150.5 740.5,150.5000000000007 740.5000000000007,100.50000000000071 690.5000000000007,100.5 690.5,150.5" stroke="black" stroke-linecap="round" stroke-width="1" /><polyline clip-path="url(#border_clip)" fill="none" points="760.5,150.5 810.5,150.5000000000007 810.5000000000007,100.50000000000071 760.5000000000007,100.5 760.5,150.5" stroke="black" stroke-linecap="round" stroke-width="1" /><polyline clip-path="url(#border_clip)" fill="none" points="830.5,150.5 880.5,150.5000000000007 880.5000000000007,100.50000000000071 830.5000000000007,100.49999999999997 830.5,150.49999999999997" stroke="black" stroke-linecap="round" stroke-width="1" /></svg>