<?xml version="1.0" encoding="utf-8" ?>
<svg baseProfile="full" height="1500px" version="1.1" width="1500px" xmlns="http://www.w3.org/2000/svg" xmlns:ev="http://www.w3.org/2001/xml-events" xmlns:xlink="http://www.w3.org/1999/xlink"><defs /><polyline clip-path="url(#border_clip)" fill="none" points="750.5,750.5 -149.5,950.5" stroke="black" stroke-linecap="round" stroke-width="1" /><polygon clip-path="url(#border_clip)" fill="#008000" fill-rule="evenodd" points="-149.5,950.5 -99.5,950.5 -99.5,900.5 -149.5,900.5 -149.5,950.5" stroke-width="0" /><polyline clip-path="url(#border_clip)" fill="none" points="-149.5,950.5 -99.5,950.5 -99.5,900.5 -149.5,900.5 -149.5,950.5" stroke="black" stroke-linecap="round" stroke-width="1" /><text clip-path="url(#border_clip)" fill="black" style="font-family: Arial; font-size: 24.75; font-style: normal;" text-anchor="middle" x="-125.5" y="933.75">A1</text><polygon clip-path="url(#border_clip)" fill="#008000" fill-rule="evenodd" points="-149.5,880.5 -99.5,880.5 -99.5,830.5 -149.5,830.5 -149.5,880.5" stroke-width="0" /><text clip-path="url(#border_clip)" fill="black" style="font-family: Arial; font-size: 24.75; font-style: normal;" text-anchor="middle" x="-125.5" y="863.75">B1</text><polygon clip-path="url(#border_clip)" fill="#008000" fill-rule="evenodd" points="-149.5,810.5 -99.5,810.5 -99.5,760.5 -149.5,760.5 -149.5,810.5" stroke-width="0" /><text clip-path="url(#border_clip)" fill="black" style="font-family: Arial; font-size: 24.75; font-style: normal;" text-anchor="middle" x="-125.5" y="793.75">C1</text><polygon clip-path="url(#border_clip)" fill="#008000" fill-rule="evenodd" points="-149.5,740.5 -99.5,740.5 -99.5,690.5 -149.5,690.5 -149.5,740.5" stroke-width="0" /><text clip-path="url(#border_clip)" fill="black" style="font-family: Arial; font-size: 24.75; font-style: normal;" text-anchor="middle" x="-125.5" y="723.75">D1</text><polygon clip-path="url(#border_clip)" fill="#008000" fill-rule="evenodd" points="-149.5,670.5 -99.5,670.5 -99.5,620.5 -149.5,620.5 -149.5000000000001,670.5" stroke-width="0" /><text clip-path="url(#border_clip)" fill="black" style="font-family: Arial; font-size: 24.75; font-style: normal;" text-anchor="middle" x="-125.5" y="653.75">E1</text><polygon clip-path="url(#border_clip)" fill="#008000" fill-rule="evenodd" points="-79.5,950.5 -29.5,950.5 -29.499999999999886,900.5 -79.49999999999989,900.5 -79.5,950.5" stroke-width="0" /><text clip-path="url(#border_clip)" fill="black" style="font-family: Arial; font-size: 24.75; font-style: normal;" text-anchor="middle" x="-55.5" y="933.75">A2</text><polygon clip-path="url(#border_clip)" fill="#008000" fill-rule="evenodd" points="-79.5,880.5 -29.5,880.5000000000001 -29.499999999999886,830.5000000000001 -79.49999999999989,830.5 -79.5,880.5" stroke-width="0" /><text clip-path="url(#border_clip)" fill="black" style="font-family: Arial; font-size: 24.75; font-style: normal;" text-anchor="middle" x="-55.5" y="863.75">B2</text><polygon clip-path="url(#border_clip)" fill="#008000" fill-rule="evenodd" points="-79.5,810.5 -29.5,810.5000000000001 -29.499999999999886,760.5000000000001 -79.49999999999989,760.5 -79.5,810.5" stroke-width="0" /><text clip-path="url(#border_clip)" fill="black" style="font-family: Arial; font-size: 24.75; font-style: normal;" text-anchor="middle" x="-55.5" y="793.75">C2</text><polygon clip-path="url(#border_clip)" fill="#008000" fill-rule="evenodd" points="-79.5,740.5 -29.5,740.5000000000001 -29.499999999999886,690.5000000000001 -79.49999999999989,690.5 -79.5,740.5" stroke-width="0" /><text clip-path="url(#border_clip)" fill="black" style="font-family: Arial; font-size: 24.75; font-style: normal;" text-anchor="middle" x="-55.5" y="723.75">D2</text><polygon clip-path="url(#border_clip)" fill="#008000" fill-rule="evenodd" points="-79.5,670.5 -29.5,670.5000000000001 -29.499999999999886,620.5000000000001 -79.49999999999989,620.5 -79.5,670.5" stroke-width="0" /><text clip-path="url(#border_clip)" fill="black" style="font-family: Arial; font-size: 24.75; font-style: normal;" text-anchor="middle" x="-55.5" y="653.75">E2</text><polygon clip-path="url(#border_clip)" fill="#008000" fill-rule="evenodd" points="-9.5,950.5 40.5,950.5000000000001 40.500000000000114,900.5000000000001 -9.499999999999886,900.5 -9.5,950.5" stroke-width="0" /><text clip-path="url(#border_clip)" fill="black" style="font-family: Arial; font-size: 24.75; font-style: normal;" text-anchor="middle" x="14.5" y="933.75">A3</text><polygon clip-path="url(#border_clip)" fill="#008000" fill-rule="evenodd" points="-9.5,880.5 40.5,880.5000000000001 40.500000000000114,830.5000000000001 -9.499999999999886,830.5 -9.5,880.5" stroke-width="0" /><text clip-path="url(#border_clip)" fill="black" style="font-family: Arial; font-size: 24.75; font-style: normal;" text-anchor="middle" x="14.5" y="863.75">B3</text><polygon clip-path="url(#border_clip)" fill="#008000" fill-rule="evenodd" points="-9.5,810.5 40.5,810.5000000000001 40.500000000000114,760.5000000000001 -9.499999999999886,760.5 -9.5,810.5" stroke-width="0" /><text clip-path="url(#border_clip)" fill="black" style="font-family: Arial; font-size: 24.75; font-style: normal;" text-anchor="middle" x="14.5" y="793.75">C3</text><polygon clip-path="url(#border_clip)" fill="#008000" fill-rule="evenodd" points="-9.5,740.5 40.5,740.5000000000001 40.500000000000114,690.5000000000001 -9.499999999999886,690.5 -9.5,740.5" stroke-width="0" /><text clip-path="url(#border_clip)" fill="black" style="font-family: Arial; font-size: 24.75; font-style: normal;" text-anchor="middle" x="14.5" y="723.75">D3</text><polygon clip-path="url(#border_clip)" fill="#008000" fill-rule="evenodd" points="-9.5,670.5 40.5,670.5000000000002 40.50000000000023,620.5000000000002 -9.499999999999773,620.5 -9.5,670.5" stroke-width="0" /><text clip-path="url(#border_clip)" fill="black" style="font-family: Arial; font-size: 24.75; font-style: normal;" text-anchor="middle" x="14.5" y="653.75">E3</text><polygon clip-path="url(#border_clip)" fill="#008000" fill-rule="evenodd" points="60.5,950.5 110.5,950.5000000000002 110.50000000000023,900.5000000000002 60.50000000000023,900.5 60.5,950.5" stroke-width="0" /><text clip-path="url(#border_clip)" fill="black" style="font-family: Arial; font-size: 24.75; font-style: normal;" text-anchor="middle" x="84.5" y="933.75">A4</text><polygon clip-path="url(#border_clip)" fill="#008000" fill-rule="evenodd" points="60.5,880.5 110.5,880.5000000000002 110.50000000000023,830.5000000000002 60.50000000000023,830.5 60.5,880.5" stroke-width="0" /><text clip-path="url(#border_clip)" fill="black" style="font-family: Arial; font-size: 24.75; font-style: normal;" text-anchor="middle" x="84.5" y="863.75">B4</text><polygon clip-path="url(#border_clip)" fill="#008000" fill-rule="evenodd" points="60.5,810.5 110.5,810.5000000000002 110.50000000000023,760.5000000000002 60.50000000000023,760.5 60.5,810.5" stroke-width="0" /><text clip-path="url(#border_clip)" fill="black" style="font-family: Arial; font-size: 24.75; font-style: normal;" text-anchor="middle" x="84.5" y="793.75">C4</text><polygon clip-path="url(#border_clip)" fill="#008000" fill-rule="evenodd" points="60.5,740.5 110.5,740.5000000000002 110.50000000000023,690.5000000000002 60.50000000000023,690.5 60.5,740.5" stroke-width="0" /><text clip-path="url(#border_clip)" fill="black" style="font-family: Arial; font-size: 24.75; font-style: normal;" text-anchor="middle" x="84.5" y="723.75">D4</text><polygon clip-path="url(#border_clip)" fill="#008000" fill-rule="evenodd" points="60.5,670.5 110.5,670.5000000000002 110.50000000000023,620.5000000000002 60.50000000000023,620.5 60.5,670.5" stroke-width="0" /><text clip-path="url(#border_clip)" fill="black" style="font-family: Arial; font-size: 24.75; font-style: normal;" text-anchor="middle" x="84.5" y="653.75">E4</text><polygon clip-path="url(#border_clip)" fill="#008000" fill-rule="evenodd" points="130.5,950.5 180.5,950.5000000000002 180.50000000000023,900.5000000000002 130.50000000000023,900.5 130.5,950.5" stroke-width="0" /><text clip-path="url(#border_clip)" fill="black" style="font-family: Arial; font-size: 24.75; font-style: normal;" text-anchor="middle" x="154.5" y="933.75">A5</text><polygon clip-path="url(#border_clip)" fill="#008000" fill-rule="evenodd" points="130.5,880.5 180.5,880.5000000000002 180.50000000000023,830.5000000000002 130.50000000000023,830.5 130.5,880.5" stroke-width="0" /><text clip-path="url(#border_clip)" fill="black" style="font-family: Arial; font-size: 24.75; font-style: normal;" text-anchor="middle" x="154.5" y="863.75">B5</text><polygon clip-path="url(#border_clip)" fill="#008000" fill-rule="evenodd" points="130.5,810.5 180.5,810.5000000000002 180.50000000000023,760.5000000000002 130.50000000000023,760.5 130.5,810.5" stroke-width="0" /><text clip-path="url(#border_clip)" fill="black" style="font-family: Arial; font-size: 24.75; font-style: normal;" text-anchor="middle" x="154.5" y="793.75">C5</text><polygon clip-path="url(#border_clip)" fill="#008000" fill-rule="evenodd" points="130.5,740.5 180.5,740.5000000000002 180.50000000000034,690.5000000000002 130.50000000000034,690.5 130.5,740.5" stroke-width="0" /><text clip-path="url(#border_clip)" fill="black" style="font-family: Arial; font-size: 24.75; font-style: normal;" text-anchor="middle" x="154.5" y="723.75">D5</text><polygon clip-path="url(#border_clip)" fill="#008000" fill-rule="evenodd" points="130.5,670.5 180.5,670.5000000000003 180.50000000000034,620.5000000000002 130.50000000000034,620.5 130.5,670.5" stroke-width="0" /><text clip-path="url(#border_clip)" fill="black" style="font-family: Arial; font-size: 24.75; font-style: normal;" text-anchor="middle" x="154.5" y="653.75">E5</text><polygon clip-path="url(#border_clip)" fill="#008000" fill-rule="evenodd" points="200.5,950.5 250.5,950.5000000000003 250.50000000000028,900.5000000000003 200.50000000000023,900.5 200.4999999999999,950.5" stroke-width="0" /><text clip-path="url(#border_clip)" fill="black" style="font-family: Arial; font-size: 24.75; font-style: normal;" text-anchor="middle" x="224.5" y="933.75">A6</text><polygon clip-path="url(#border_clip)" fill="#008000" fill-rule="evenodd" points="200.5,880.5 250.5,880.5000000000003 250.50000000000034,830.5000000000003 200.50000000000034,830.5 200.5,880.5" stroke-width="0" /><text clip-path="url(#border_clip)" fill="black" style="font-family: Arial; font-size: 24.75; font-style: normal;" text-anchor="middle" x="224.5" y="863.75">B6</text><polygon clip-path="url(#border_clip)" fill="#008000" fill-rule="evenodd" points="200.5,810.5 250.5,810.5000000000003 250.50000000000034,760.5000000000003 200.50000000000034,760.5 200.5,810.5" stroke-width="0" /><text clip-path="url(#border_clip)" fill="black" style="font-family: Arial; font-size: 24.75; font-style: normal;" text-anchor="middle" x="224.5" y="793.75">C6</text><polygon clip-path="url(#border_clip)" fill="#008000" fill-rule="evenodd" points="200.5,740.5 250.5,740.5000000000003 250.50000000000034,690.5000000000003 200.50000000000034,690.5 200.5,740.5" stroke-width="0" /><text clip-path="url(#border_clip)" fill="black" style="font-family: Arial; font-size: 24.75; font-style: normal;" text-anchor="middle" x="224.5" y="723.75">D6</text><polygon clip-path="url(#border_clip)" fill="#008000" fill-rule="evenodd" points="200.5,670.5 250.5,670.5000000000003 250.50000000000034,620.5000000000003 200.50000000000034,620.5 200.5,670.5" stroke-width="0" /><text clip-path="url(#border_clip)" fill="black" style="font-family: Arial; font-size: 24.75; font-style: normal;" text-anchor="middle" x="224.5" y="653.75">E6</text><polygon clip-path="url(#border_clip)" fill="black" fill-rule="evenodd" points="225.5,660.5 -169.5,1040.5 280.5,1040.5000000000032 280.5000000000004,990.5000000000033 -169.49999999999955,990.5 -169.4999999999999,1040.5" stroke-width="0" /><text clip-path="url(#border_clip)" fill="#ffffff" style="font-family: Arial; font-size: 24.75; font-style: normal;" text-anchor="middle" x="65.5" y="1018.75">SCREEN</text><polyline clip-path="url(#border_clip)" fill="none" points="-149.5,880.5 -99.5,880.5 -99.5,830.5 -149.5,830.5 -149.5,880.5" stroke="black" stroke-linecap="round" stroke-width="1" /><polyline clip-path="url(#border_clip)" fill="none" points="-149.5,810.5 -99.5,810.5 -99.5,760.5 -149.5,760.5 -149.5,810.5" stroke="black" stroke-linecap="round" stroke-width="1" /><polyline clip-path="url(#border_clip)" fill="none" points="-149.5,740.5 -99.5,740.5 -99.5,690.5 -149.5,690.5 -149.5,740.5" stroke="black" stroke-linecap="round" stroke-width="1" /><polyline clip-path="url(#border_clip)" fill="none" points="-149.5,670.5 -99.5,670.5 -99.5,620.5 -149.5,620.5 -149.5000000000001,670.5" stroke="black" stroke-linecap="round" stroke-width="1" /><polyline clip-path="url(#border_clip)" fill="none" points="-79.5,950.5 -29.5,950.5 -29.499999999999886,900.5 -79.49999999999989,900.5 -79.5,950.5" stroke="black" stroke-linecap="round" stroke-width="1" /><polyline clip-path="url(#border_clip)" fill="none" points="-79.5,880.5 -29.5,880.5000000000001 -29.499999999999886,830.5000000000001 -79.49999999999989,830.5 -79.5,880.5" stroke="black" stroke-linecap="round" stroke-width="1" /><polyline clip-path="url(#border_clip)" fill="none" points="-79.5,810.5 -29.5,810.5000000000001 -29.499999999999886,760.5000000000001 -79.49999999999989,760.5 -79.5,810.5" stroke="black" stroke-linecap="round" stroke-width="1" /><polyline clip-path="url(#border_clip)" fill="none" points="-79.5,740.5 -29.5,740.5000000000001 -29.499999999999886,690.5000000000001 -79.49999999999989,690.5 -79.5,740.5" stroke="black" stroke-linecap="round" stroke-width="1" /><polyline clip-path="url(#border_clip)" fill="none" points="-79.5,670.5 -29.5,670.5000000000001 -29.499999999999886,620.5000000000001 -79.49999999999989,620.5 -79.5,670.5" stroke="black" stroke-linecap="round" stroke-width="1" /><polyline clip-path="url(#border_clip)" fill="none" points="-9.5,950.5 40.5,950.5000000000001 40.500000000000114,900.5000000000001 -9.499999999999886,900.5 -9.5,950.5" stroke="black" stroke-linecap="round" stroke-width="1" /><polyline clip-path="url(#border_clip)" fill="none" points="-9.5,880.5 40.5,880.5000000000001 40.500000000000114,830.5000000000001 -9.499999999999886,830.5 -9.5,880.5" stroke="black" stroke-linecap="round" stroke-width="1" /><polyline clip-path="url(#border_clip)" fill="none" points="-9.5,810.5 40.5,810.5000000000001 40.500000000000114,760.5000000000001 -9.499999999999886,760.5 -9.5,810.5" stroke="black" stroke-linecap="round" stroke-width="1" /><polyline clip-path="url(#border_clip)" fill="none" points="-9.5,740.5 40.5,740.5000000000001 40.500000000000114,690.5000000000001 -9.499999999999886,690.5 -9.5,740.5" stroke="black" stroke-linecap="round" stroke-width="1" /><polyline clip-path="url(#border_clip)" fill="none" points="-9.5,670.5 40.5,670.5000000000002 40.50000000000023,620.5000000000002 -9.499999999999773,620.5 -9.5,670.5" stroke="black" stroke-linecap="round" stroke-width="1" /><polyline clip-path="url(#border_clip)" fill="none" points="60.5,950.5 110.5,950.5000000000002 110.50000000000023,900.5000000000002 60.50000000000023,900.5 60.5,950.5" stroke="black" stroke-linecap="round" stroke-width="1" /><polyline clip-path="url(#border_clip)" fill="none" points="60.5,880.5 110.5,880.5000000000002 110.50000000000023,830.5000000000002 60.50000000000023,830.5 60.5,880.5" stroke="black" stroke-linecap="round" stroke-width="1" /><polyline clip-path="url(#border_clip)" fill="none" points="60.5,810.5 110.5,810.5000000000002 110.50000000000023,760.5000000000002 60.50000000000023,760.5 60.5,810.5" stroke="black" stroke-linecap="round" stroke-width="1" /><polyline clip-path="url(#border_clip)" fill="none" points="60.5,740.5 110.5,740.5000000000002 110.50000000000023,690.5000000000002 60.50000000000023,690.5 60.5,740.5" stroke="black" stroke-linecap="round" stroke-width="1" /><polyline clip-path="url(#border_clip)" fill="none" points="60.5,670.5 110.5,670.5000000000002 110.50000000000023,620.5000000000002 60.50000000000023,620.5 60.5,670.5" stroke="black" stroke-linecap="round" stroke-width="1" /><polyline clip-path="url(#border_clip)" fill="none" points="130.5,950.5 180.5,950.5000000000002 180.50000000000023,900.5000000000002 130.50000000000023,900.5 130.5,950.5" stroke="black" stroke-linecap="round" stroke-width="1" /><polyline clip-path="url(#border_clip)" fill="none" points="130.5,880.5 180.5,880.5000000000002 180.50000000000023,830.5000000000002 130.50000000000023,830.5 130.5,880.5" stroke="black" stroke-linecap="round" stroke-width="1" /><polyline clip-path="url(#border_clip)" fill="none" points="130.5,810.5 180.5,810.5000000000002 180.50000000000023,760.5000000000002 130.50000000000023,760.5 130.5,810.5" stroke="black" stroke-linecap="round" stroke-width="1" /><polyline clip-path="url(#border_clip)" fill="none" points="130.5,740.5 180.5,740.5000000000002 180.50000000000034,690.5000000000002 130.50000000000034,690.5 130.5,740.5" stroke="black" stroke-linecap="round" stroke-width="1" /><polyline clip-path="url(#border_clip)" fill="none" points="130.5,670.5 180.5,670.5000000000003 180.50000000000034,620.5000000000002 130.50000000000034,620.5 130.5,670.5" stroke="black" stroke-linecap="round" stroke-width="1" /><polyline clip-path="url(#border_clip)" fill="none" points="200.5,950.5 250.5,950.5000000000003 250.50000000000028,900.5000000000003 200.50000000000023,900.5 200.4999999999999,950.5" stroke="black" stroke-linecap="round" stroke-width="1" /><polyline clip-path="url(#border_clip)" fill="none" points="200.5,880.5 250.5,880.5000000000003 250.50000000000034,830.5000000000003 200.50000000000034,830.5 200.5,880.5" stroke="black" stroke-linecap="round" stroke-width="1" /><polyline clip-path="url(#border_clip)" fill="none" points="200.5,810.5 250.5,810.5000000000003 250.50000000000034,760.5000000000003 200.50000000000034,760.5 200.5,810.5" stroke="black" stroke-linecap="round" stroke-width="1" /><polyline clip-path="url(#border_clip)" fill="none" points="200.5,740.5 250.5,740.5000000000003 250.50000000000034,690.5000000000003 200.50000000000034,690.5 200.5,740.5" stroke="black" stroke-linecap="round" stroke-width="1" /><polyline clip-path="url(#border_clip)" fill="none" points="200.5,670.5 250.5,670.5000000000003 250.50000000000034,620.5000000000003 200.50000000000034,620.5 200.5,670.5" stroke="black" stroke-linecap="round" stroke-width="1" /></svg>