<?xml version="1.0" encoding="utf-8" ?>
<svg baseProfile="full" height="600px" version="1.1" width="600px" xmlns="http://www.w3.org/2000/svg" xmlns:ev="http://www.w3.org/2001/xml-events" xmlns:xlink="http://www.w3.org/1999/xlink"><defs /><polyline clip-path="url(#border_clip)" fill="none" points="300.5,300.5 0.5,500.5" stroke="black" stroke-linecap="round" stroke-width="1" /><polygon clip-path="url(#border_clip)" fill="#008000" fill-rule="evenodd" points="0.5,500.5 50.5,500.5 50.5,450.5 0.5,450.5 0.5,500.5" stroke-width="0" /><polyline clip-path="url(#border_clip)" fill="none" points="0.5,500.5 50.5,500.5 50.5,450.5 0.5,450.5 0.5,500.5" stroke="black" stroke-linecap="round" stroke-width="1" /><text clip-path="url(#border_clip)" fill="black" style="font-family: Arial; font-size: 24.75; font-style: normal;" text-anchor="middle" x="24.5" y="483.75">A1</text><polygon clip-path="url(#border_clip)" fill="#008000" fill-rule="evenodd" points="0.5,430.5 50.5,430.5 50.50000000000003,380.5 0.5,380.5 0.5,430.5" stroke-width="0" /><text clip-path="url(#border_clip)" fill="black" style="font-family: Arial; font-size: 24.75; font-style: normal;" text-anchor="middle" x="24.5" y="413.75">B1</text><polygon clip-path="url(#border_clip)" fill="#008000" fill-rule="evenodd" points="0.5,360.5 50.5,360.5 50.50000000000003,310.5 0.5,310.5 0.49999999999994316,360.5" stroke-width="0" /><text clip-path="url(#border_clip)" fill="black" style="font-family: Arial; font-size: 24.75; font-style: normal;" text-anchor="middle" x="24.5" y="343.75">C1</text><polygon clip-path="url(#border_clip)" fill="#008000" fill-rule="evenodd" points="0.5,290.5 50.5,290.50000000000006 50.50000000000003,240.50000000000003 0.5,240.5 0.49999999999994316,290.5" stroke-width="0" /><text clip-path="url(#border_clip)" fill="black" style="font-family: Arial; font-size: 24.75; font-style: normal;" text-anchor="middle" x="24.5" y="273.75">D1</text><polygon clip-path="url(#border_clip)" fill="#008000" fill-rule="evenodd" points="0.5,220.5 50.5,220.50000000000006 50.50000000000006,170.50000000000006 0.5000000000000568,170.5 0.5,220.5" stroke-width="0" /><text clip-path="url(#border_clip)" fill="black" style="font-family: Arial; font-size: 24.75; font-style: normal;" text-anchor="middle" x="24.5" y="203.75">E1</text><polygon clip-path="url(#border_clip)" fill="#008000" fill-rule="evenodd" points="70.5,500.5 120.5,500.50000000000006 120.50000000000006,450.50000000000006 70.50000000000006,450.5 70.5,500.5" stroke-width="0" /><text clip-path="url(#border_clip)" fill="black" style="font-family: Arial; font-size: 24.75; font-style: normal;" text-anchor="middle" x="94.5" y="483.75">A2</text><polygon clip-path="url(#border_clip)" fill="#008000" fill-rule="evenodd" points="70.5,430.5 120.5,430.5000000000001 120.50000000000009,380.5000000000001 70.50000000000009,380.5 70.5,430.5" stroke-width="0" /><text clip-path="url(#border_clip)" fill="black" style="font-family: Arial; font-size: 24.75; font-style: normal;" text-anchor="middle" x="94.5" y="413.75">B2</text><polygon clip-path="url(#border_clip)" fill="#008000" fill-rule="evenodd" points="70.5,360.5 120.5,360.5000000000001 120.50000000000009,310.5000000000001 70.50000000000009,310.5 70.5,360.5" stroke-width="0" /><text clip-path="url(#border_clip)" fill="black" style="font-family: Arial; font-size: 24.75; font-style: normal;" text-anchor="middle" x="94.5" y="343.75">C2</text><polygon clip-path="url(#border_clip)" fill="#008000" fill-rule="evenodd" points="70.5,290.5 120.5,290.5000000000001 120.50000000000011,240.5000000000001 70.50000000000011,240.5 70.5,290.5" stroke-width="0" /><text clip-path="url(#border_clip)" fill="black" style="font-family: Arial; font-size: 24.75; font-style: normal;" text-anchor="middle" x="94.5" y="273.75">D2</text><polygon clip-path="url(#border_clip)" fill="#008000" fill-rule="evenodd" points="70.5,220.5 120.5,220.5000000000001 120.50000000000011,170.5000000000001 70.50000000000011,170.5 70.5,220.5" stroke-width="0" /><text clip-path="url(#border_clip)" fill="black" style="font-family: Arial; font-size: 24.75; font-style: normal;" text-anchor="middle" x="94.5" y="203.75">E2</text><polygon clip-path="url(#border_clip)" fill="#008000" fill-rule="evenodd" points="140.5,500.5 190.5,500.5000000000001 190.5000000000001,450.5000000000001 140.5000000000001,450.5 140.49999999999997,500.5" stroke-width="0" /><text clip-path="url(#border_clip)" fill="black" style="font-family: Arial; font-size: 24.75; font-style: normal;" text-anchor="middle" x="164.5" y="483.75">A3</text><polygon clip-path="url(#border_clip)" fill="#008000" fill-rule="evenodd" points="140.5,430.5 190.5,430.5000000000001 190.50000000000014,380.5000000000001 140.50000000000014,380.5 140.5,430.5" stroke-width="0" /><text clip-path="url(#border_clip)" fill="black" style="font-family: Arial; font-size: 24.75; font-style: normal;" text-anchor="middle" x="164.5" y="413.75">B3</text><polygon clip-path="url(#border_clip)" fill="#008000" fill-rule="evenodd" points="140.5,360.5 190.5,360.50000000000017 190.50000000000017,310.50000000000017 140.50000000000017,310.5 140.50000000000003,360.5" stroke-width="0" /><text clip-path="url(#border_clip)" fill="black" style="font-family: Arial; font-size: 24.75; font-style: normal;" text-anchor="middle" x="164.5" y="343.75">C3</text><polygon clip-path="url(#border_clip)" fill="#008000" fill-rule="evenodd" points="140.5,290.5 190.5,290.50000000000017 190.50000000000017,240.50000000000017 140.50000000000017,240.5 140.5,290.5" stroke-width="0" /><text clip-path="url(#border_clip)" fill="black" style="font-family: Arial; font-size: 24.75; font-style: normal;" text-anchor="middle" x="164.5" y="273.75">D3</text><polygon clip-path="url(#border_clip)" fill="#008000" fill-rule="evenodd" points="140.5,220.5 190.5,220.50000000000017 190.50000000000017,170.50000000000017 140.50000000000017,170.5 140.5,220.5" stroke-width="0" /><text clip-path="url(#border_clip)" fill="black" style="font-family: Arial; font-size: 24.75; font-style: normal;" text-anchor="middle" x="164.5" y="203.75">E3</text><polygon clip-path="url(#border_clip)" fill="#008000" fill-rule="evenodd" points="210.5,500.5 260.5,500.50000000000017 260.50000000000017,450.50000000000017 210.50000000000017,450.5 210.5,500.5" stroke-width="0" /><text clip-path="url(#border_clip)" fill="black" style="font-family: Arial; font-size: 24.75; font-style: normal;" text-anchor="middle" x="234.5" y="483.75">A4</text><polygon clip-path="url(#border_clip)" fill="#008000" fill-rule="evenodd" points="210.5,430.5 260.5,430.5000000000002 260.5000000000002,380.5000000000002 210.5000000000002,380.5 210.5,430.5" stroke-width="0" /><text clip-path="url(#border_clip)" fill="black" style="font-family: Arial; font-size: 24.75; font-style: normal;" text-anchor="middle" x="234.5" y="413.75">B4</text><polygon clip-path="url(#border_clip)" fill="#008000" fill-rule="evenodd" points="210.5,360.5 260.5,360.5000000000002 260.5000000000002,310.5000000000002 210.50000000000023,310.5 210.5,360.5" stroke-width="0" /><text clip-path="url(#border_clip)" fill="black" style="font-family: Arial; font-size: 24.75; font-style: normal;" text-anchor="middle" x="234.5" y="343.75">C4</text><polygon clip-path="url(#border_clip)" fill="#008000" fill-rule="evenodd" points="210.5,290.5 260.5,290.5000000000002 260.5000000000002,240.50000000000023 210.50000000000023,240.5 210.5,290.5" stroke-width="0" /><text clip-path="url(#border_clip)" fill="black" style="font-family: Arial; font-size: 24.75; font-style: normal;" text-anchor="middle" x="234.5" y="273.75">D4</text><polygon clip-path="url(#border_clip)" fill="#008000" fill-rule="evenodd" points="210.5,220.5 260.5,220.50000000000023 260.5000000000002,170.50000000000023 210.50000000000023,170.5 210.5,220.5" stroke-width="0" /><text clip-path="url(#border_clip)" fill="black" style="font-family: Arial; font-size: 24.75; font-style: normal;" text-anchor="middle" x="234.5" y="203.75">E4</text><polygon clip-path="url(#border_clip)" fill="#008000" fill-rule="evenodd" points="280.5,500.5 330.5,500.5000000000002 330.5000000000002,450.5000000000002 280.5000000000002,450.5 280.5,500.5" stroke-width="0" /><text clip-path="url(#border_clip)" fill="black" style="font-family: Arial; font-size: 24.75; font-style: normal;" text-anchor="middle" x="304.5" y="483.75">A5</text><polygon clip-path="url(#border_clip)" fill="#008000" fill-rule="evenodd" points="280.5,430.5 330.5,430.5000000000002 330.5000000000003,380.5000000000002 280.5000000000003,380.5 280.5,430.5" stroke-width="0" /><text clip-path="url(#border_clip)" fill="black" style="font-family: Arial; font-size: 24.75; font-style: normal;" text-anchor="middle" x="304.5" y="413.75">B5</text><polygon clip-path="url(#border_clip)" fill="#008000" fill-rule="evenodd" points="280.5,360.5 330.5,360.5000000000003 330.5000000000003,310.5000000000003 280.5000000000003,310.5 280.5,360.5" stroke-width="0" /><text clip-path="url(#border_clip)" fill="black" style="font-family: Arial; font-size: 24.75; font-style: normal;" text-anchor="middle" x="304.5" y="343.75">C5</text><polygon clip-path="url(#border_clip)" fill="#008000" fill-rule="evenodd" points="280.5,290.5 330.5,290.5000000000003 330.5000000000003,240.50000000000028 280.5000000000003,240.5 280.5,290.5" stroke-width="0" /><text clip-path="url(#border_clip)" fill="black" style="font-family: Arial; font-size: 24.75; font-style: normal;" text-anchor="middle" x="304.5" y="273.75">D5</text><polygon clip-path="url(#border_clip)" fill="#008000" fill-rule="evenodd" points="280.5,220.5 330.5,220.50000000000028 330.5000000000003,170.50000000000028 280.5000000000003,170.49999999999997 280.5,220.49999999999997" stroke-width="0" /><text clip-path="url(#border_clip)" fill="black" style="font-family: Arial; font-size: 24.75; font-style: normal;" text-anchor="middle" x="304.5" y="203.75">E5</text><polygon clip-path="url(#border_clip)" fill="#008000" fill-rule="evenodd" points="350.5,500.5 400.5,500.50000000000034 400.50000000000034,450.50000000000034 350.50000000000034,450.5 350.5,500.5" stroke-width="0" /><text clip-path="url(#border_clip)" fill="black" style="font-family: Arial; font-size: 24.75; font-style: normal;" text-anchor="middle" x="374.5" y="483.75">A6</text><polygon clip-path="url(#border_clip)" fill="#008000" fill-rule="evenodd" points="350.5,430.5 400.5,430.50000000000034 400.50000000000034,380.50000000000034 350.50000000000034,380.5 350.5,430.5" stroke-width="0" /><text clip-path="url(#border_clip)" fill="black" style="font-family: Arial; font-size: 24.75; font-style: normal;" text-anchor="middle" x="374.5" y="413.75">B6</text><polygon clip-path="url(#border_clip)" fill="#008000" fill-rule="evenodd" points="350.5,360.5 400.5,360.50000000000034 400.50000000000034,310.50000000000034 350.50000000000034,310.5 350.5,360.5" stroke-width="0" /><text clip-path="url(#border_clip)" fill="black" style="font-family: Arial; font-size: 24.75; font-style: normal;" text-anchor="middle" x="374.5" y="343.75">C6</text><polygon clip-path="url(#border_clip)" fill="#008000" fill-rule="evenodd" points="350.5,290.5 400.5,290.50000000000034 400.50000000000034,240.50000000000034 350.50000000000034,240.5 350.5,290.5" stroke-width="0" /><text clip-path="url(#border_clip)" fill="black" style="font-family: Arial; font-size: 24.75; font-style: normal;" text-anchor="middle" x="374.5" y="273.75">D6</text><polygon clip-path="url(#border_clip)" fill="#008000" fill-rule="evenodd" points="350.5,220.5 400.5,220.50000000000034 400.50000000000034,170.50000000000034 350.50000000000034,170.49999999999997 350.5,220.49999999999997" stroke-width="0" /><text clip-path="url(#border_clip)" fill="black" style="font-family: Arial; font-size: 24.75; font-style: normal;" text-anchor="middle" x="374.5" y="203.75">E6</text><polygon clip-path="url(#border_clip)" fill="black" fill-rule="evenodd" points="375.5,210.5 -19.5,590.5 430.5,590.5000000000033 430.50000000000034,540.5000000000033 -19.49999999999966,540.5 -19.500000000000057,590.5" stroke-width="0" /><text clip-path="url(#border_clip)" fill="#ffffff" style="font-family: Arial; font-size: 24.75; font-style: normal;" text-anchor="middle" x="215.5" y="568.75">SCREEN</text><polyline clip-path="url(#border_clip)" fill="none" points="0.5,430.5 50.5,430.5 50.50000000000003,380.5 0.5,380.5 0.5,430.5" stroke="black" stroke-linecap="round" stroke-width="1" /><polyline clip-path="url(#border_clip)" fill="none" points="0.5,360.5 50.5,360.5 50.50000000000003,310.5 0.5,310.5 0.49999999999994316,360.5" stroke="black" stroke-linecap="round" stroke-width="1" /><polyline clip-path="url(#border_clip)" fill="none" points="0.5,290.5 50.5,290.50000000000006 50.50000000000003,240.50000000000003 0.5,240.5 0.49999999999994316,290.5" stroke="black" stroke-linecap="round" stroke-width="1" /><polyline clip-path="url(#border_clip)" fill="none" points="0.5,220.5 50.5,220.50000000000006 50.50000000000006,170.50000000000006 0.5000000000000568,170.5 0.5,220.5" stroke="black" stroke-linecap="round" stroke-width="1" /><polyline clip-path="url(#border_clip)" fill="none" points="70.5,500.5 120.5,500.50000000000006 120.50000000000006,450.50000000000006 70.50000000000006,450.5 70.5,500.5" stroke="black" stroke-linecap="round" stroke-width="1" /><polyline clip-path="url(#border_clip)" fill="none" points="70.5,430.5 120.5,430.5000000000001 120.50000000000009,380.5000000000001 70.50000000000009,380.5 70.5,430.5" stroke="black" stroke-linecap="round" stroke-width="1" /><polyline clip-path="url(#border_clip)" fill="none" points="70.5,360.5 120.5,360.5000000000001 120.50000000000009,310.5000000000001 70.50000000000009,310.5 70.5,360.5" stroke="black" stroke-linecap="round" stroke-width="1" /><polyline clip-path="url(#border_clip)" fill="none" points="70.5,290.5 120.5,290.5000000000001 120.50000000000011,240.5000000000001 70.50000000000011,240.5 70.5,290.5" stroke="black" stroke-linecap="round" stroke-width="1" /><polyline clip-path="url(#border_clip)" fill="none" points="70.5,220.5 120.5,220.5000000000001 120.50000000000011,170.5000000000001 70.50000000000011,170.5 70.5,220.5" stroke="black" stroke-linecap="round" stroke-width="1" /><polyline clip-path="url(#border_clip)" fill="none" points="140.5,500.5 190.5,500.5000000000001 190.5000000000001,450.5000000000001 140.5000000000001,450.5 140.49999999999997,500.5" stroke="black" stroke-linecap="round" stroke-width="1" /><polyline clip-path="url(#border_clip)" fill="none" points="140.5,430.5 190.5,430.5000000000001 190.50000000000014,380.5000000000001 140.50000000000014,380.5 140.5,430.5" stroke="black" stroke-linecap="round" stroke-width="1" /><polyline clip-path="url(#border_clip)" fill="none" points="140.5,360.5 190.5,360.50000000000017 190.50000000000017,310.50000000000017 140.50000000000017,310.5 140.50000000000003,360.5" stroke="black" stroke-linecap="round" stroke-width="1" /><polyline clip-path="url(#border_clip)" fill="none" points="140.5,290.5 190.5,290.50000000000017 190.50000000000017,240.50000000000017 140.50000000000017,240.5 140.5,290.5" stroke="black" stroke-linecap="round" stroke-width="1" /><polyline clip-path="url(#border_clip)" fill="none" points="140.5,220.5 190.5,220.50000000000017 190.50000000000017,170.50000000000017 140.50000000000017,170.5 140.5,220.5" stroke="black" stroke-linecap="round" stroke-width="1" /><polyline clip-path="url(#border_clip)" fill="none" points="210.5,500.5 260.5,500.50000000000017 260.50000000000017,450.50000000000017 210.50000000000017,450.5 210.5,500.5" stroke="black" stroke-linecap="round" stroke-width="1" /><polyline clip-path="url(#border_clip)" fill="none" points="210.5,430.5 260.5,430.5000000000002 260.5000000000002,380.5000000000002 210.5000000000002,380.5 210.5,430.5" stroke="black" stroke-linecap="round" stroke-width="1" /><polyline clip-path="url(#border_clip)" fill="none" points="210.5,360.5 260.5,360.5000000000002 260.5000000000002,310.5000000000002 210.50000000000023,310.5 210.5,360.5" stroke="black" stroke-linecap="round" stroke-width="1" /><polyline clip-path="url(#border_clip)" fill="none" points="210.5,290.5 260.5,290.5000000000002 260.5000000000002,240.50000000000023 210.50000000000023,240.5 210.5,290.5" stroke="black" stroke-linecap="round" stroke-width="1" /><polyline clip-path="url(#border_clip)" fill="none" points="210.5,220.5 260.5,220.50000000000023 260.5000000000002,170.50000000000023 210.50000000000023,170.5 210.5,220.5" stroke="black" stroke-linecap="round" stroke-width="1" /><polyline clip-path="url(#border_clip)" fill="none" points="280.5,500.5 330.5,500.5000000000002 330.5000000000002,450.5000000000002 280.5000000000002,450.5 280.5,500.5" stroke="black" stroke-linecap="round" stroke-width="1" /><polyline clip-path="url(#border_clip)" fill="none" points="280.5,430.5 330.5,430.5000000000002 330.5000000000003,380.5000000000002 280.5000000000003,380.5 280.5,430.5" stroke="black" stroke-linecap="round" stroke-width="1" /><polyline clip-path="url(#border_clip)" fill="none" points="280.5,360.5 330.5,360.5000000000003 330.5000000000003,310.5000000000003 280.5000000000003,310.5 280.5,360.5" stroke="black" stroke-linecap="round" stroke-width="1" /><polyline clip-path="url(#border_clip)" fill="none" points="280.5,290.5 330.5,290.5000000000003 330.5000000000003,240.50000000000028 280.5000000000003,240.5 280.5,290.5" stroke="black" stroke-linecap="round" stroke-width="1" /><polyline clip-path="url(#border_clip)" fill="none" points="280.5,220.5 330.5,220.50000000000028 330.5000000000003,170.50000000000028 280.5000000000003,170.49999999999997 280.5,220.49999999999997" stroke="black" stroke-linecap="round" stroke-width="1" /><polyline clip-path="url(#border_clip)" fill="none" points="350.5,500.5 400.5,500.50000000000034 400.50000000000034,450.50000000000034 350.50000000000034,450.5 350.5,500.5" stroke="black" stroke-linecap="round" stroke-width="1" /><polyline clip-path="url(#border_clip)" fill="none" points="350.5,430.5 400.5,430.50000000000034 400.50000000000034,380.50000000000034 350.50000000000034,380.5 350.5,430.5" stroke="black" stroke-linecap="round" stroke-width="1" /><polyline clip-path="url(#border_clip)" fill="none" points="350.5,360.5 400.5,360.50000000000034 400.50000000000034,310.50000000000034 350.50000000000034,310.5 350.5,360.5" stroke="black" stroke-linecap="round" stroke-width="1" /><polyline clip-path="url(#border_clip)" fill="none" points="350.5,290.5 400.5,290.50000000000034 400.50000000000034,240.50000000000034 350.50000000000034,240.5 350.5,290.5" stroke="black" stroke-linecap="round" stroke-width="1" /><polyline clip-path="url(#border_clip)" fill="none" points="350.5,220.5 400.5,220.50000000000034 400.50000000000034,170.50000000000034 350.50000000000034,170.49999999999997 350.5,220.49999999999997" stroke="black" stroke-linecap="round" stroke-width="1" /></svg>